<svg xmlns="http://www.w3.org/2000/svg" width="101" height="101" viewBox="0 0 101 101" fill="none">
    <rect x="31.7426" y="21.6429" width="37.5143" height="57.7143" rx="18.7571" stroke="url(#paint0_linear_274_7367)"
        stroke-width="5.77143" />
    <rect x="40.3993" y="30.3" width="20.2" height="40.4" rx="10.1" fill="url(#paint1_linear_274_7367)" />
    <rect width="3.18329" height="15.2798" transform="matrix(1 0 0 -1 48.8934 59.4998)" fill="#02C498" />
    <path d="M43.2819 47.603L45.5328 49.854L52.7358 42.651L50.4848 40.4001L43.2819 47.603Z" fill="#02C498" />
    <path d="M57.7109 47.603L55.46 49.854L48.257 42.651L50.508 40.4001L57.7109 47.603Z" fill="#02C498" />
    <path d="M46.8929 13.2207C33.4571 14.9866 23.0857 26.482 23.0857 40.3998V53.3855H15.15" stroke="#02C498"
        stroke-width="2.16429" stroke-linecap="round" stroke-linejoin="round" />
    <path fill-rule="evenodd" clip-rule="evenodd"
        d="M50.4997 16.5927C52.4919 16.5927 54.1069 14.9778 54.1069 12.9856C54.1069 10.9934 52.4919 9.37845 50.4997 9.37845C48.5076 9.37845 46.8926 10.9934 46.8926 12.9856C46.8926 14.9778 48.5076 16.5927 50.4997 16.5927Z"
        stroke="#02C498" stroke-width="2.16429" />
    <path d="M54.111 87.7793C67.5468 86.0134 77.9182 74.518 77.9182 60.6002V47.6145H85.1324" stroke="#02C498"
        stroke-width="2.16429" stroke-linecap="round" stroke-linejoin="round" />
    <path fill-rule="evenodd" clip-rule="evenodd"
        d="M50.5028 84.4073C48.5107 84.4073 46.8957 86.0222 46.8957 88.0144C46.8957 90.0066 48.5107 91.6216 50.5028 91.6216C52.495 91.6216 54.11 90.0066 54.11 88.0144C54.11 86.0222 52.495 84.4073 50.5028 84.4073Z"
        stroke="#02C498" stroke-width="2.16429" />
    <path d="M12.264 78.5465V71.0574H19.7531V78.5465H12.264Z" fill="url(#paint2_linear_274_7367)" />
    <path d="M7.93567 67.3678V59.8787H15.4248V67.3678H7.93567Z" fill="url(#paint3_linear_274_7367)" />
    <path d="M22.0009 78.5465V71.0574H29.49V78.5465H22.0009Z" fill="url(#paint4_linear_274_7367)" />
    <path d="M17.6725 67.3678V59.8787H25.1617V67.3678H17.6725Z" fill="url(#paint5_linear_274_7367)" />
    <path d="M31.7378 78.5465V71.0574H39.2269V78.5465H31.7378Z" fill="url(#paint6_linear_274_7367)" />
    <path d="M27.4094 67.3678V59.8787H34.8985V67.3678H27.4094Z" fill="url(#paint7_linear_274_7367)" />
    <path d="M41.4708 78.5465V71.0574H48.9599V78.5465H41.4708Z" fill="url(#paint8_linear_274_7367)" />
    <path d="M37.1425 67.3678V59.8787H44.6316V67.3678H37.1425Z" fill="url(#paint9_linear_274_7367)" />
    <defs>
        <linearGradient id="paint0_linear_274_7367" x1="50.4997" y1="21.6429" x2="50.4997" y2="79.3571"
            gradientUnits="userSpaceOnUse">
            <stop stop-color="#02C498" />
            <stop offset="1" stop-color="white" stop-opacity="0" />
        </linearGradient>
        <linearGradient id="paint1_linear_274_7367" x1="50.4993" y1="30.3" x2="50.4993" y2="70.7"
            gradientUnits="userSpaceOnUse">
            <stop stop-color="#02C498" />
            <stop offset="1" stop-color="white" stop-opacity="0" />
        </linearGradient>
        <linearGradient id="paint2_linear_274_7367" x1="47.4982" y1="69" x2="9.49817" y2="68"
            gradientUnits="userSpaceOnUse">
            <stop stop-color="#02C498" />
            <stop offset="1" stop-color="white" stop-opacity="0" />
        </linearGradient>
        <linearGradient id="paint3_linear_274_7367" x1="47.4982" y1="69" x2="9.49817" y2="68"
            gradientUnits="userSpaceOnUse">
            <stop stop-color="#02C498" />
            <stop offset="1" stop-color="white" stop-opacity="0" />
        </linearGradient>
        <linearGradient id="paint4_linear_274_7367" x1="47.4982" y1="69" x2="9.49817" y2="68"
            gradientUnits="userSpaceOnUse">
            <stop stop-color="#02C498" />
            <stop offset="1" stop-color="white" stop-opacity="0" />
        </linearGradient>
        <linearGradient id="paint5_linear_274_7367" x1="47.4982" y1="69" x2="9.49817" y2="68"
            gradientUnits="userSpaceOnUse">
            <stop stop-color="#02C498" />
            <stop offset="1" stop-color="white" stop-opacity="0" />
        </linearGradient>
        <linearGradient id="paint6_linear_274_7367" x1="47.4982" y1="69" x2="9.49817" y2="68"
            gradientUnits="userSpaceOnUse">
            <stop stop-color="#02C498" />
            <stop offset="1" stop-color="white" stop-opacity="0" />
        </linearGradient>
        <linearGradient id="paint7_linear_274_7367" x1="47.4982" y1="69" x2="9.49817" y2="68"
            gradientUnits="userSpaceOnUse">
            <stop stop-color="#02C498" />
            <stop offset="1" stop-color="white" stop-opacity="0" />
        </linearGradient>
        <linearGradient id="paint8_linear_274_7367" x1="47.4982" y1="69" x2="9.49817" y2="68"
            gradientUnits="userSpaceOnUse">
            <stop stop-color="#02C498" />
            <stop offset="1" stop-color="white" stop-opacity="0" />
        </linearGradient>
        <linearGradient id="paint9_linear_274_7367" x1="47.4982" y1="69" x2="9.49817" y2="68"
            gradientUnits="userSpaceOnUse">
            <stop stop-color="#02C498" />
            <stop offset="1" stop-color="white" stop-opacity="0" />
        </linearGradient>
    </defs>
</svg>