<svg xmlns="http://www.w3.org/2000/svg" width="101" height="101" viewBox="0 0 101 101" fill="none">
    <path fill-rule="evenodd" clip-rule="evenodd"
        d="M72.9776 79.4106L79.5015 82.7851L79.5006 82.7511C80.1506 83.0858 80.3995 83.8782 80.0607 84.5203C79.7219 85.1624 78.9198 85.4117 78.2698 85.077L71.6941 81.6753L68.5065 79.9266C66.9438 79.0249 65.5713 77.8398 64.4615 76.4292C63.2999 74.9229 62.6776 73.0787 62.6914 71.1831V70.7903C59.4211 73.9974 55.0232 75.8315 50.4147 75.9135C45.9446 75.8418 41.6679 74.1101 38.4319 71.0601V71.1831C38.4492 73.0787 37.8269 74.9229 36.6618 76.4292C35.552 77.8398 34.1795 79.0249 32.6168 79.9266L29.5467 81.6753L22.8984 85.1214C22.2485 85.4561 21.4464 85.2068 21.1076 84.5647C20.7688 83.9227 21.0177 83.1303 21.6711 82.7956L28.2469 79.3938L31.2546 77.6451C32.5304 76.9074 33.654 75.934 34.5564 74.7762C35.3619 73.7482 35.801 72.4845 35.8045 71.1832V68.2527C33.9894 65.9643 32.5374 63.4131 31.5036 60.691C27.0161 58.1977 24.3609 54.8335 24.3609 51.0731V31.8375C24.3264 30.5942 24.8208 29.392 25.7231 28.5245C27.1026 27.1754 29.4224 26.4616 32.5028 26.0927C36.2166 19.7812 43.0478 15.8978 50.4394 15.8978C57.8279 15.8978 64.6595 19.781 68.376 26.0927H68.3726C71.7019 26.4514 74.1808 27.1686 75.6225 28.586C76.5075 29.4399 76.995 30.6149 76.9673 31.8375V51.1003C76.9673 55.0143 74.0459 58.5048 69.268 61.005C68.3 63.4675 66.9931 65.7865 65.3821 67.8939V71.1829C65.389 72.4944 65.8384 73.7649 66.6578 74.793C67.5498 75.9474 68.6526 76.9208 69.9145 77.6619L72.9776 79.4106ZM74.3122 31.837C74.3295 31.3179 74.1186 30.8192 73.7383 30.464C72.6147 29.6135 71.2697 29.091 69.8626 28.9612C70.6716 30.8602 71.211 32.8617 71.4633 34.9075C73.3199 33.8828 74.3122 32.8002 74.3122 31.837ZM50.4435 18.5546C56.1929 18.5888 61.5864 21.2972 65.0018 25.867C65.6691 26.7277 66.2603 27.643 66.772 28.6028C67.7089 30.3959 68.3623 32.3222 68.7011 34.3099C68.8014 34.894 68.874 35.4746 68.9224 36.0586C68.2897 36.2977 67.6051 36.5266 66.8688 36.7417C61.5965 38.1728 56.1445 38.8559 50.6749 38.7705C45.0672 38.8661 39.4806 38.1454 34.0871 36.629C33.3369 36.3968 32.6454 36.1543 32.0058 35.9049C32.0507 35.3721 32.1302 34.8393 32.2167 34.3134L32.2201 34.31C32.5589 32.329 33.2089 30.4096 34.1424 28.6199C34.6506 27.6533 35.2418 26.7311 35.9125 25.8671C39.3214 21.304 44.7044 18.5956 50.4435 18.5546ZM31.007 29.0401C29.7623 29.187 28.5799 29.672 27.5912 30.437C27.2074 30.8025 26.9999 31.3113 27.0172 31.8373C27.0172 32.7117 27.8677 33.7363 29.4857 34.6892C29.7381 32.7459 30.2498 30.8469 31.007 29.0401ZM30.2464 56.6674C28.2031 55.0075 27.0173 53.1017 27.0173 51.0798V36.2088C27.7192 36.7246 28.4694 37.1754 29.2542 37.5545C29.7243 37.7834 30.2083 38.002 30.7339 38.2103C31.2559 38.4186 31.5221 38.5177 31.937 38.6646C32.175 38.7507 32.4311 38.8324 32.6833 38.9129C32.8708 38.9727 33.0561 39.0318 33.23 39.0915V39.0949C38.8999 40.6831 44.7703 41.4549 50.6648 41.3935C56.4177 41.4481 62.1528 40.7172 67.7022 39.2178C68.0075 39.1295 68.3076 39.0324 68.6035 38.9366C68.7196 38.8991 68.8353 38.8616 68.9503 38.8251C69.3582 38.6953 69.8353 38.5279 70.2087 38.3708C70.3087 38.3287 70.425 38.281 70.5506 38.2296C70.8941 38.0887 71.3068 37.9195 71.6435 37.7594L71.64 37.756C72.577 37.3257 73.4655 36.8066 74.2952 36.1986V51.0731C74.2952 53.2692 72.8985 55.3321 70.5165 57.0876C69.4655 57.8493 68.3419 58.5084 67.1629 59.0549C61.9597 61.3125 56.328 62.4362 50.6477 62.3439C44.8032 62.3439 37.2156 60.7008 33.6103 58.7919C32.638 58.2771 30.7119 57.0876 30.2464 56.6674ZM38.4431 67.3269C41.6829 71.0327 45.8661 73.28 50.4436 73.28C56.7394 73.28 61.8509 68.1265 62.9758 66.7498C63.9365 65.5739 64.9124 64.0604 65.6759 62.5624C60.8567 64.2155 55.785 65.0317 50.6821 64.9737C45.385 65.0386 40.1164 64.1506 35.1414 62.3506C35.8259 63.71 36.6349 65.0045 37.558 66.2169C37.593 66.2629 37.6261 66.3064 37.6574 66.3476C37.9888 66.7832 38.1296 66.9683 38.4431 67.3269Z"
        fill="#02C498" />
    <path
        d="M74.7627 73.9581C72.694 78.6835 62.6557 82.2684 50.5839 82.2684C37.0146 82.2684 26.0145 77.7389 26.0145 72.1516C26.0145 69.1315 29.2284 66.4204 34.3248 64.5667"
        stroke="#02C498" stroke-width="2.16789" stroke-linecap="round" stroke-linejoin="round" />
    <path fill-rule="evenodd" clip-rule="evenodd"
        d="M75.8772 74.0694C77.8727 74.0694 79.4903 72.4518 79.4903 70.4563C79.4903 68.4608 77.8727 66.8431 75.8772 66.8431C73.8817 66.8431 72.264 68.4608 72.264 70.4563C72.264 72.4518 73.8817 74.0694 75.8772 74.0694Z"
        stroke="#02C498" stroke-width="2.16789" />
    <path
        d="M37.758 66.4818C37.7259 66.4397 37.6921 66.3952 37.656 66.3477L37.5565 66.2169C36.7513 65.1594 36.0331 64.0395 35.4084 62.8686H32.4102C33.0892 64.2724 33.8693 65.5335 34.5101 66.4818H37.758Z"
        fill="#02C498" />
    <path
        d="M32.5178 52.3504V42.9294C35.606 44.1071 39.6206 45.8735 50.4291 45.8735C60.0024 45.8735 65.8699 44.1071 68.6492 42.635V52.3504C65.5611 55.5888 58.5819 57.8102 50.4291 57.8102C42.2764 57.8102 34.6795 55.2944 32.5178 52.3504Z"
        fill="url(#paint0_linear_274_7343)" />
    <path d="M13.0072 34.6862H20.5088V42.1877H13.0072V34.6862Z" fill="url(#paint1_linear_274_7343)" />
    <path d="M13.0072 44.4382H20.5088V51.9398H13.0072V44.4382Z" fill="url(#paint2_linear_274_7343)" />
    <path d="M13.0072 54.1903H20.5088V61.6918H13.0072V54.1903Z" fill="url(#paint3_linear_274_7343)" />
    <path d="M13.0072 63.9423H20.5088V71.4439H13.0072V63.9423Z" fill="url(#paint4_linear_274_7343)" />
    <path d="M80.9336 12.2846H88.4352V19.7862H80.9336V12.2846Z" fill="url(#paint5_linear_274_7343)" />
    <path d="M80.9336 22.0367H88.4352V29.5382H80.9336V22.0367Z" fill="url(#paint6_linear_274_7343)" />
    <path d="M80.9336 31.7887H88.4352V39.2903H80.9336V31.7887Z" fill="url(#paint7_linear_274_7343)" />
    <path d="M80.9336 41.5407H88.4352V49.0423H80.9336V41.5407Z" fill="url(#paint8_linear_274_7343)" />
    <defs>
        <linearGradient id="paint0_linear_274_7343" x1="50.5835" y1="42.635" x2="50.5835" y2="57.8102"
            gradientUnits="userSpaceOnUse">
            <stop stop-color="#02C498" />
            <stop offset="1" stop-color="white" stop-opacity="0" />
        </linearGradient>
        <linearGradient id="paint1_linear_274_7343" x1="50.7212" y1="12.2846" x2="50.7212" y2="71.4439"
            gradientUnits="userSpaceOnUse">
            <stop stop-color="#02C498" />
            <stop offset="1" stop-color="white" stop-opacity="0" />
        </linearGradient>
        <linearGradient id="paint2_linear_274_7343" x1="50.7212" y1="12.2846" x2="50.7212" y2="71.4439"
            gradientUnits="userSpaceOnUse">
            <stop stop-color="#02C498" />
            <stop offset="1" stop-color="white" stop-opacity="0" />
        </linearGradient>
        <linearGradient id="paint3_linear_274_7343" x1="50.7212" y1="12.2846" x2="50.7212" y2="71.4439"
            gradientUnits="userSpaceOnUse">
            <stop stop-color="#02C498" />
            <stop offset="1" stop-color="white" stop-opacity="0" />
        </linearGradient>
        <linearGradient id="paint4_linear_274_7343" x1="50.7212" y1="12.2846" x2="50.7212" y2="71.4439"
            gradientUnits="userSpaceOnUse">
            <stop stop-color="#02C498" />
            <stop offset="1" stop-color="white" stop-opacity="0" />
        </linearGradient>
        <linearGradient id="paint5_linear_274_7343" x1="50.7212" y1="12.2846" x2="50.7212" y2="71.4439"
            gradientUnits="userSpaceOnUse">
            <stop stop-color="#02C498" />
            <stop offset="1" stop-color="white" stop-opacity="0" />
        </linearGradient>
        <linearGradient id="paint6_linear_274_7343" x1="50.7212" y1="12.2846" x2="50.7212" y2="71.4439"
            gradientUnits="userSpaceOnUse">
            <stop stop-color="#02C498" />
            <stop offset="1" stop-color="white" stop-opacity="0" />
        </linearGradient>
        <linearGradient id="paint7_linear_274_7343" x1="50.7212" y1="12.2846" x2="50.7212" y2="71.4439"
            gradientUnits="userSpaceOnUse">
            <stop stop-color="#02C498" />
            <stop offset="1" stop-color="white" stop-opacity="0" />
        </linearGradient>
        <linearGradient id="paint8_linear_274_7343" x1="50.7212" y1="12.2846" x2="50.7212" y2="71.4439"
            gradientUnits="userSpaceOnUse">
            <stop stop-color="#02C498" />
            <stop offset="1" stop-color="white" stop-opacity="0" />
        </linearGradient>
    </defs>
</svg>