<svg xmlns="http://www.w3.org/2000/svg" width="101" height="101" viewBox="0 0 101 101" fill="none">
    <path d="M23.7739 76.3652V31.5856H80.4948V76.3652" stroke="url(#paint0_linear_274_7381)" stroke-width="2.8471" />
    <path d="M29.7424 42.7805H53.6249V69.6483H29.7424V42.7805Z" fill="url(#paint1_linear_274_7381)" />
    <path d="M57.2288 57.942H74.3113V69.3304H57.2288V57.942Z" fill="#02C498" />
    <path d="M57.2288 42.9947H74.3113V54.3831H57.2288V42.9947Z" fill="#02C498" />
    <path d="M60.0822 22.526L21.2732 22.526" stroke="#02C498" stroke-width="2.13532" stroke-linecap="round"
        stroke-linejoin="round" />
    <path fill-rule="evenodd" clip-rule="evenodd"
        d="M17.3682 25.9121C19.3337 25.9121 20.9271 24.3188 20.9271 22.3533C20.9271 20.3878 19.3337 18.7944 17.3682 18.7944C15.4027 18.7944 13.8093 20.3878 13.8093 22.3533C13.8093 24.3188 15.4027 25.9121 17.3682 25.9121Z"
        stroke="#02C498" stroke-width="2.13532" />
    <path d="M44.4081 80.1798L83.217 80.1798" stroke="#02C498" stroke-width="2.13532" stroke-linecap="round"
        stroke-linejoin="round" />
    <path fill-rule="evenodd" clip-rule="evenodd"
        d="M87.122 83.5659C85.1565 83.5659 83.5632 81.9726 83.5632 80.007C83.5632 78.0415 85.1565 76.4482 87.122 76.4482C89.0875 76.4482 90.6809 78.0415 90.6809 80.007C90.6809 81.9726 89.0875 83.5659 87.122 83.5659Z"
        stroke="#02C498" stroke-width="2.13532" />
    <path d="M69.3254 55.334H77.073V47.5864H69.3254V55.334Z" fill="url(#paint2_linear_274_7381)" />
    <path d="M80.8904 59.812H88.638V52.0644H80.8904V59.812Z" fill="url(#paint3_linear_274_7381)" />
    <path d="M69.3254 45.2622H77.073V37.5146H69.3254V45.2622Z" fill="url(#paint4_linear_274_7381)" />
    <path d="M80.8904 49.7401H88.638V41.9925H80.8904V49.7401Z" fill="url(#paint5_linear_274_7381)" />
    <path d="M69.3254 35.1903H77.073V27.4427H69.3254V35.1903Z" fill="url(#paint6_linear_274_7381)" />
    <path d="M80.8904 39.6682H88.638V31.9207H80.8904V39.6682Z" fill="url(#paint7_linear_274_7381)" />
    <path d="M69.3254 25.1184H77.073V17.3709H69.3254V25.1184Z" fill="url(#paint8_linear_274_7381)" />
    <path d="M80.8904 29.5964H88.638V21.8488H80.8904V29.5964Z" fill="url(#paint9_linear_274_7381)" />
    <defs>
        <linearGradient id="paint0_linear_274_7381" x1="52.1343" y1="31.5856" x2="52.1343" y2="76.3652"
            gradientUnits="userSpaceOnUse">
            <stop stop-color="#02C498" />
            <stop offset="1" stop-color="white" stop-opacity="0" />
        </linearGradient>
        <linearGradient id="paint1_linear_274_7381" x1="41.6837" y1="42.7805" x2="41.6837" y2="69.6483"
            gradientUnits="userSpaceOnUse">
            <stop stop-color="#02C498" />
            <stop offset="1" stop-color="white" stop-opacity="0" />
        </linearGradient>
        <linearGradient id="paint2_linear_274_7381" x1="78.9817" y1="17.3709" x2="78.9817" y2="59.812"
            gradientUnits="userSpaceOnUse">
            <stop stop-color="#02C498" />
            <stop offset="1" stop-color="white" stop-opacity="0" />
        </linearGradient>
        <linearGradient id="paint3_linear_274_7381" x1="78.9817" y1="17.3709" x2="78.9817" y2="59.812"
            gradientUnits="userSpaceOnUse">
            <stop stop-color="#02C498" />
            <stop offset="1" stop-color="white" stop-opacity="0" />
        </linearGradient>
        <linearGradient id="paint4_linear_274_7381" x1="78.9817" y1="17.3709" x2="78.9817" y2="59.812"
            gradientUnits="userSpaceOnUse">
            <stop stop-color="#02C498" />
            <stop offset="1" stop-color="white" stop-opacity="0" />
        </linearGradient>
        <linearGradient id="paint5_linear_274_7381" x1="78.9817" y1="17.3709" x2="78.9817" y2="59.812"
            gradientUnits="userSpaceOnUse">
            <stop stop-color="#02C498" />
            <stop offset="1" stop-color="white" stop-opacity="0" />
        </linearGradient>
        <linearGradient id="paint6_linear_274_7381" x1="78.9817" y1="17.3709" x2="78.9817" y2="59.812"
            gradientUnits="userSpaceOnUse">
            <stop stop-color="#02C498" />
            <stop offset="1" stop-color="white" stop-opacity="0" />
        </linearGradient>
        <linearGradient id="paint7_linear_274_7381" x1="78.9817" y1="17.3709" x2="78.9817" y2="59.812"
            gradientUnits="userSpaceOnUse">
            <stop stop-color="#02C498" />
            <stop offset="1" stop-color="white" stop-opacity="0" />
        </linearGradient>
        <linearGradient id="paint8_linear_274_7381" x1="78.9817" y1="17.3709" x2="78.9817" y2="59.812"
            gradientUnits="userSpaceOnUse">
            <stop stop-color="#02C498" />
            <stop offset="1" stop-color="white" stop-opacity="0" />
        </linearGradient>
        <linearGradient id="paint9_linear_274_7381" x1="78.9817" y1="17.3709" x2="78.9817" y2="59.812"
            gradientUnits="userSpaceOnUse">
            <stop stop-color="#02C498" />
            <stop offset="1" stop-color="white" stop-opacity="0" />
        </linearGradient>
    </defs>
</svg>