<svg xmlns="http://www.w3.org/2000/svg" width="21" height="21" viewBox="0 0 21 21">
    <path
        d="M20.0455 1.90909H17.1818V0.954545C17.1818 0.701384 17.0813 0.458592 16.9022 0.27958C16.7232 0.100568 16.4804 0 16.2273 0C15.9741 0 15.7313 0.100568 15.5523 0.27958C15.3733 0.458592 15.2727 0.701384 15.2727 0.954545V1.90909H11.4545V0.954545C11.4545 0.701384 11.354 0.458592 11.175 0.27958C10.996 0.100568 10.7532 0 10.5 0C10.2468 0 10.004 0.100568 9.82503 0.27958C9.64602 0.458592 9.54545 0.701384 9.54545 0.954545V1.90909H5.72727V0.954545C5.72727 0.701384 5.6267 0.458592 5.44769 0.27958C5.26868 0.100568 5.02589 0 4.77273 0C4.51957 0 4.27677 0.100568 4.09776 0.27958C3.91875 0.458592 3.81818 0.701384 3.81818 0.954545V1.90909H0.954545C0.701384 1.90909 0.458592 2.00966 0.27958 2.18867C0.100568 2.36768 0 2.61048 0 2.86364V7.63636H21V2.86364C21 2.61048 20.8994 2.36768 20.7204 2.18867C20.5414 2.00966 20.2986 1.90909 20.0455 1.90909ZM0 20.0455C0 20.2986 0.100568 20.5414 0.27958 20.7204C0.458592 20.8994 0.701384 21 0.954545 21H20.0455C20.2986 21 20.5414 20.8994 20.7204 20.7204C20.8994 20.5414 21 20.2986 21 20.0455V9.54545H0V20.0455Z" />
</svg>