<svg width="57" height="57" viewBox="0 0 57 57" xmlns="http://www.w3.org/2000/svg">
    <path
        d="M35.6336 21.6496H23.7138C23.6779 21.6496 23.6451 21.6631 23.6115 21.6733L23.3185 20.7105C23.2731 20.5614 23.181 20.4308 23.0558 20.338C22.9305 20.2452 22.7788 20.1951 22.6229 20.1951H21.1683C20.9675 20.1951 20.8047 20.3579 20.8047 20.5587V21.286C20.8047 21.4868 20.9675 21.6496 21.1683 21.6496H22.0842L24.3562 29.116L23.5077 30.1059C23.1723 30.4972 23.0213 31.0363 23.1756 31.528C23.3731 32.1568 23.928 32.5588 24.5679 32.5588H34.9866C35.1875 32.5588 35.3503 32.396 35.3503 32.1951V31.4679C35.3503 31.267 35.1875 31.1042 34.9866 31.1042H24.5678L25.7206 29.7594C25.7495 29.7256 25.7709 29.6874 25.7928 29.6496H32.8396C33.1157 29.6497 33.3861 29.5711 33.6192 29.4232C33.8523 29.2752 34.0386 29.064 34.1561 28.8142L36.6937 23.422C36.7666 23.266 36.8045 23.0959 36.8048 22.9237V22.8207C36.8048 22.174 36.2805 21.6496 35.6336 21.6496Z" />
    <path
        d="M25.1733 36.1953C25.9767 36.1953 26.6279 35.544 26.6279 34.7407C26.6279 33.9374 25.9767 33.2861 25.1733 33.2861C24.37 33.2861 23.7188 33.9374 23.7188 34.7407C23.7188 35.544 24.37 36.1953 25.1733 36.1953Z" />
    <path
        d="M33.8999 36.1953C34.7032 36.1953 35.3545 35.544 35.3545 34.7407C35.3545 33.9374 34.7032 33.2861 33.8999 33.2861C33.0965 33.2861 32.4453 33.9374 32.4453 34.7407C32.4453 35.544 33.0965 36.1953 33.8999 36.1953Z" />
</svg>