<svg width="22" height="22" viewBox="0 0 22 22" xmlns="http://www.w3.org/2000/svg">

    <path
        d="M11 21.3284C8.9233 21.3284 6.89323 20.7227 5.16652 19.5878C3.4398 18.4529 2.09399 16.8398 1.29927 14.9526C0.50455 13.0654 0.296615 10.9887 0.701759 8.9852C1.1069 6.98171 2.10693 5.14139 3.57538 3.69696C5.04383 2.25253 6.91475 1.26885 8.95155 0.870334C10.9884 0.471816 13.0996 0.67635 15.0182 1.45807C16.9368 2.23979 18.5767 3.56359 19.7304 5.26207C20.8842 6.96054 21.5 8.95741 21.5 11.0001C21.5 13.7394 20.3938 16.3664 18.4246 18.3033C16.4555 20.2403 13.7848 21.3284 11 21.3284ZM11 2.54975C9.30088 2.54975 7.63992 3.04535 6.22715 3.9739C4.81438 4.90244 3.71326 6.22221 3.06304 7.76632C2.41281 9.31043 2.24268 11.0095 2.57417 12.6487C2.90565 14.288 3.72385 15.7937 4.92531 16.9755C6.12677 18.1573 7.65753 18.9621 9.324 19.2882C10.9905 19.6142 12.7178 19.4469 14.2876 18.8073C15.8574 18.1677 17.1991 17.0846 18.1431 15.6949C19.0871 14.3053 19.5909 12.6715 19.5909 11.0001C19.5909 8.75896 18.6858 6.60957 17.0747 5.02481C15.4636 3.44005 13.2785 2.54975 11 2.54975Z" />
    <path
        d="M11 1.61084C9.11213 1.61084 7.26662 2.16151 5.69688 3.19323C4.12714 4.22494 2.90367 5.69135 2.1812 7.40703C1.45873 9.1227 1.26969 11.0106 1.63801 12.8319C2.00632 14.6533 2.91544 16.3263 4.25039 17.6394C5.58535 18.9526 7.28618 19.8468 9.13782 20.2091C10.9895 20.5714 12.9087 20.3854 14.6529 19.6748C16.3971 18.9641 17.8879 17.7607 18.9368 16.2166C19.9857 14.6725 20.5455 12.8572 20.5455 11.0002C20.5455 9.76715 20.2986 8.5462 19.8189 7.40703C19.3392 6.26786 18.6361 5.23279 17.7497 4.36091C16.8633 3.48903 15.811 2.79742 14.6529 2.32556C13.4948 1.8537 12.2536 1.61084 11 1.61084ZM14.8182 14.7559C14.6394 14.9308 14.3974 15.0289 14.1453 15.0289C13.8931 15.0289 13.6512 14.9308 13.4723 14.7559L10.876 12.202C10.6126 11.9451 10.4036 11.6394 10.261 11.3026C10.1185 10.9658 10.0452 10.6045 10.0455 10.2396V6.30551C10.0455 6.05648 10.1461 5.81766 10.3251 5.64158C10.5041 5.4655 10.7469 5.36657 11 5.36657C11.2532 5.36657 11.496 5.4655 11.675 5.64158C11.854 5.81766 11.9546 6.05648 11.9546 6.30551V10.2396C11.958 10.4781 12.0536 10.7064 12.2219 10.8781L14.8182 13.432C14.996 13.6079 15.0958 13.8459 15.0958 14.094C15.0958 14.342 14.996 14.58 14.8182 14.7559Z" />

</svg>