<svg width="24" height="24" viewBox="0 0 24 24" xmlns="http://www.w3.org/2000/svg">
    <path
        d="M14.8298 5.45536C14.6151 5.45536 14.421 5.53579 14.269 5.66428L14.261 5.65631L7.41074 12.483C6.63445 13.2591 6.31616 14.0163 6.31208 15.0972C6.31208 15.9426 6.62448 16.7032 7.19152 17.2387C7.77717 17.7915 8.59053 18.0838 9.54405 18.0836H9.56406C10.5566 18.0791 11.4853 17.6886 12.1783 16.9849L20.1269 9.03831C22.14 7.02493 22.1928 4.1555 20.2525 2.21498C19.2901 1.25268 18.0088 0.722656 16.6445 0.722656C15.2802 0.722656 13.9992 1.25268 13.0376 2.21506L3.08223 12.169C0.544205 14.707 0.544205 18.8369 3.08223 21.375C4.30971 22.6021 5.94425 23.2778 7.6847 23.2778C9.42519 23.2778 11.0598 22.6021 12.2878 21.3748L22.5941 11.0321C22.5941 11.0321 22.8212 10.8088 22.8212 10.4322C22.8212 9.94973 22.43 9.55847 21.9475 9.55847C21.7182 9.55847 21.511 9.64882 21.3551 9.79344L21.3524 9.79077L11.046 20.1337C10.1496 21.0296 8.95577 21.5231 7.68452 21.5231C6.41326 21.5231 5.21965 21.0296 4.32354 20.1337C2.47001 18.2794 2.47001 15.2635 4.32354 13.4105L14.2789 3.4567C14.9097 2.82587 15.7498 2.47853 16.6445 2.47853C17.5392 2.47853 18.3798 2.82602 19.0112 3.4567C19.6408 4.0863 19.9572 4.83425 19.9266 5.61999C19.8963 6.39329 19.5364 7.14605 18.8855 7.79689L10.9203 15.7603C10.5562 16.125 10.0721 16.3266 9.55784 16.3279C8.57967 16.3279 8.06792 15.7116 8.06792 15.1036C8.06988 14.5899 8.27135 14.1059 8.63548 13.7413L15.5024 6.89795L15.4946 6.89017C15.6231 6.73811 15.7035 6.54409 15.7035 6.32932C15.7036 5.84644 15.3123 5.45536 14.8298 5.45536Z" />
</svg>