<svg xmlns="http://www.w3.org/2000/svg" width="24" height="24" viewBox="0 0 24 24">
    <path fill-rule="evenodd" clip-rule="evenodd"
        d="M0.923077 4.3055H8.74339C8.94454 5.01432 9.37142 5.63819 9.95926 6.08242C10.5471 6.52665 11.2638 6.767 12.0006 6.767C12.7374 6.767 13.4541 6.52665 14.042 6.08242C14.6298 5.63819 15.0567 5.01432 15.2578 4.3055H23.0769C23.3217 4.3055 23.5565 4.20824 23.7296 4.03513C23.9028 3.86202 24 3.62723 24 3.38242C24 3.1376 23.9028 2.90282 23.7296 2.7297C23.5565 2.55659 23.3217 2.45934 23.0769 2.45934H15.2566C15.0551 1.75102 14.6281 1.12771 14.0405 0.683907C13.4528 0.240102 12.7364 0 12 0C11.2636 0 10.5472 0.240102 9.95954 0.683907C9.37186 1.12771 8.9449 1.75102 8.74339 2.45934H0.923077C0.678262 2.45934 0.443473 2.55659 0.270363 2.7297C0.0972524 2.90282 0 3.1376 0 3.38242C0 3.62723 0.0972524 3.86202 0.270363 4.03513C0.443473 4.20824 0.678262 4.3055 0.923077 4.3055ZM18.1538 8.61319C17.5242 8.61325 16.9071 8.78893 16.3718 9.1205C15.8365 9.45207 15.4044 9.92638 15.1239 10.4901C14.8434 11.0538 14.7257 11.6846 14.7841 12.3115C14.8425 12.9384 15.0745 13.5367 15.4543 14.0389C15.834 14.5412 16.3462 14.9276 16.9335 15.1546C17.5208 15.3817 18.1597 15.4405 18.7786 15.3243C19.3974 15.2082 19.9716 14.9217 20.4365 14.4971C20.9015 14.0725 21.2387 13.5266 21.4105 12.9209H23.0769C23.3217 12.9209 23.5565 12.8236 23.7296 12.6505C23.9028 12.4774 24 12.2426 24 11.9978C24 11.753 23.9028 11.5182 23.7296 11.3451C23.5565 11.172 23.3217 11.0747 23.0769 11.0747H21.4117C21.2105 10.3658 20.7835 9.74185 20.1956 9.2976C19.6076 8.85335 18.8908 8.61306 18.1538 8.61319ZM0 11.9978C0 11.753 0.0972524 11.5182 0.270363 11.3451C0.443473 11.172 0.678262 11.0747 0.923077 11.0747H12C12.2448 11.0747 12.4796 11.172 12.6527 11.3451C12.8258 11.5182 12.9231 11.753 12.9231 11.9978C12.9231 12.2426 12.8258 12.4774 12.6527 12.6505C12.4796 12.8236 12.2448 12.9209 12 12.9209H0.923077C0.678262 12.9209 0.443473 12.8236 0.270363 12.6505C0.0972524 12.4774 0 12.2426 0 11.9978ZM2.58954 21.5363H0.923077C0.678262 21.5363 0.443473 21.439 0.270363 21.2659C0.0972524 21.0928 0 20.858 0 20.6132C0 20.3684 0.0972524 20.1336 0.270363 19.9605C0.443473 19.7874 0.678262 19.6901 0.923077 19.6901H2.58954C2.81235 18.9038 3.31204 18.2246 3.9964 17.7779C4.68077 17.3312 5.50362 17.1471 6.3131 17.2596C7.12258 17.372 7.86407 17.7735 8.40072 18.3899C8.93737 19.0062 9.23297 19.7959 9.23297 20.6132C9.23297 21.4304 8.93737 22.2201 8.40072 22.8365C7.86407 23.4529 7.12258 23.8543 6.3131 23.9668C5.50362 24.0793 4.68077 23.8952 3.9964 23.4485C3.31204 23.0017 2.81235 22.3226 2.58954 21.5363ZM11.0769 20.6132C11.0769 20.3684 11.1742 20.1336 11.3473 19.9605C11.5204 19.7874 11.7552 19.6901 12 19.6901H23.0769C23.3217 19.6901 23.5565 19.7874 23.7296 19.9605C23.9028 20.1336 24 20.3684 24 20.6132C24 20.858 23.9028 21.0928 23.7296 21.2659C23.5565 21.439 23.3217 21.5363 23.0769 21.5363H12C11.7552 21.5363 11.5204 21.439 11.3473 21.2659C11.1742 21.0928 11.0769 20.858 11.0769 20.6132Z" />
</svg>