<svg width="22" height="22" viewBox="0 0 22 22" xmlns="http://www.w3.org/2000/svg">

    <path
        d="M10.9984 0C6.7233 0 3.26562 3.45767 3.26562 7.73281C3.26562 13.5324 10.9984 22.0937 10.9984 22.0937C10.9984 22.0937 18.7312 13.5324 18.7312 7.73281C18.7312 3.45767 15.2736 0 10.9984 0ZM10.9984 10.4945C10.266 10.4945 9.56353 10.2036 9.04561 9.68564C8.52768 9.16772 8.23672 8.46526 8.23672 7.73281C8.23672 7.00036 8.52768 6.2979 9.04561 5.77998C9.56353 5.26206 10.266 4.97109 10.9984 4.97109C11.7309 4.97109 12.4333 5.26206 12.9513 5.77998C13.4692 6.2979 13.7602 7.00036 13.7602 7.73281C13.7602 8.46526 13.4692 9.16772 12.9513 9.68564C12.4333 10.2036 11.7309 10.4945 10.9984 10.4945Z" />

</svg>