<svg width="22" height="22" viewBox="0 0 22 22" xmlns="http://www.w3.org/2000/svg">
    <path
        d="M1.41526 4.71703C4.16018 7.04168 8.97666 11.1314 10.3923 12.4066C10.5823 12.5788 10.7862 12.6663 10.9978 12.6663C11.2089 12.6663 11.4124 12.5796 11.602 12.4083C13.0189 11.1318 17.8353 7.04168 20.5803 4.71703C20.7512 4.57258 20.7773 4.31867 20.6389 4.14207C20.319 3.73398 19.8422 3.5 19.3311 3.5H2.66444C2.15338 3.5 1.67647 3.73398 1.35666 4.14211C1.2183 4.31867 1.24436 4.57258 1.41526 4.71703Z" />
    <path
        d="M20.7583 5.97685C20.6863 5.94325 20.6061 5.93107 20.5273 5.94175C20.4485 5.95243 20.3745 5.98552 20.314 6.03709C17.2699 8.61763 13.3848 11.9254 12.1625 13.0268C11.4764 13.6461 10.5243 13.6461 9.83664 13.026C8.53375 11.8521 4.17094 8.14318 1.68602 6.03705C1.62538 5.98572 1.55135 5.95279 1.47263 5.94211C1.39392 5.93144 1.31379 5.94348 1.24168 5.97681C1.16955 6.01023 1.10847 6.06357 1.06565 6.13055C1.02283 6.19754 1.00005 6.27536 1 6.35486V16.8334C1 17.7526 1.74746 18.5001 2.66668 18.5001H19.3334C20.2525 18.5001 21 17.7526 21 16.8334V6.35486C21 6.27535 20.9773 6.19751 20.9344 6.13052C20.8916 6.06354 20.8305 6.01021 20.7583 5.97685Z" />
</svg>