<svg width="22" height="22" viewBox="0 0 22 22" xmlns="http://www.w3.org/2000/svg">
    <path fill-rule="evenodd" clip-rule="evenodd"
        d="M9.39705 12.6029C8.59776 11.8051 7.8893 10.9219 7.28713 9.96976C7.06725 9.62199 7.06957 9.20418 7.29316 8.85891L8.15251 7.53214C8.33585 7.24893 8.37083 6.9258 8.25231 6.61L6.77413 2.67036C6.54267 2.05339 5.81004 1.80926 5.25469 2.16407L3.19249 3.48163C2.25138 4.08296 1.81444 5.1639 2.0737 6.25026C2.87161 9.5939 4.61195 12.6029 7.01731 14.9827C9.39705 17.3881 12.4061 19.1284 15.7497 19.9263C16.8361 20.1856 17.917 19.7486 18.5184 18.8075L19.8359 16.7453C20.1908 16.19 19.9466 15.4573 19.3296 15.2259L15.39 13.7477C15.0742 13.6292 14.7511 13.6641 14.4679 13.8475L13.1411 14.7068C12.7959 14.9304 12.378 14.9328 12.0303 14.7129C11.0781 14.1107 10.1949 13.4022 9.39705 12.6029Z" />
</svg>