<svg width="33" height="33" viewBox="0 0 33 33" xmlns="http://www.w3.org/2000/svg">
    <path fill-rule="evenodd" clip-rule="evenodd"
        d="M15.1431 17.7414C14.6864 17.2855 14.2816 16.7809 13.9375 16.2368C13.8118 16.038 13.8132 15.7993 13.9409 15.602L14.432 14.8438C14.5367 14.682 14.5567 14.4974 14.489 14.3169L13.6443 12.0657C13.5121 11.7131 13.0934 11.5736 12.7761 11.7764L11.5977 12.5293C11.0599 12.8729 10.8102 13.4906 10.9584 14.1113C11.4143 16.022 12.4088 17.7414 13.7833 19.1013C15.1431 20.4758 16.8626 21.4703 18.7733 21.9262C19.394 22.0744 20.0117 21.8247 20.3553 21.2869L21.1082 20.1085C21.311 19.7912 21.1715 19.3725 20.8189 19.2403L18.5677 18.3956C18.3872 18.3279 18.2026 18.3478 18.0408 18.4526L17.2826 18.9437C17.0853 19.0714 16.8466 19.0728 16.6478 18.9471C16.1037 18.603 15.5991 18.1982 15.1431 17.7414Z" />
</svg>