<svg width="57" height="57" viewBox="0 0 57 57" xmlns="http://www.w3.org/2000/svg">
    <path
        d="M34.2582 33.6056C35.15 32.4335 35.6968 31.0357 35.8367 29.5695C35.9767 28.1034 35.7043 26.6273 35.0503 25.3077C34.3963 23.988 33.3866 22.8773 32.1352 22.1008C30.8837 21.3243 29.4402 20.9127 27.9674 20.9126C26.9289 20.9098 25.9002 21.113 24.9407 21.5104C23.9813 21.9078 23.1102 22.4916 22.3778 23.2279C21.2723 24.3334 20.5194 25.7419 20.2144 27.2753C19.9094 28.8087 20.0659 30.3981 20.6642 31.8426C21.2625 33.287 22.2757 34.5216 23.5757 35.3902C24.8756 36.2588 26.404 36.7224 27.9674 36.7224C29.6978 36.7271 31.3812 36.1596 32.7556 35.1082L35.2487 37.6014C35.4479 37.8006 35.7182 37.9126 36 37.9126C36.2818 37.9126 36.552 37.8006 36.7513 37.6014C36.9505 37.4021 37.0625 37.1319 37.0625 36.8501C37.0625 36.5683 36.9506 36.298 36.7513 36.0988L34.2582 33.6056ZM27.9674 34.5974C26.8243 34.5974 25.7068 34.2584 24.7563 33.6233C23.8058 32.9882 23.0649 32.0855 22.6275 31.0294C22.19 29.9732 22.0755 28.8111 22.2986 27.6899C22.5216 26.5687 23.0721 25.5388 23.8804 24.7305C26.134 22.4769 29.8009 22.4769 32.0544 24.7305C32.8627 25.5388 33.4132 26.5687 33.6362 27.6899C33.8593 28.8111 33.7448 29.9732 33.3073 31.0293C32.8699 32.0855 32.1291 32.9882 31.1786 33.6233C30.2281 34.2584 29.1106 34.5974 27.9674 34.5974H27.9674Z" />
</svg>