<svg width="57" height="56" viewBox="0 0 57 56" xmlns="http://www.w3.org/2000/svg">
    <path
        d="M17.5341 27.9404L21.9682 29.4462L32.4963 23.0099C32.6491 22.917 32.8054 23.1242 32.6739 23.2454L24.7036 30.5815L24.4076 34.6885C24.4027 34.7573 24.4189 34.826 24.454 34.8853C24.4891 34.9447 24.5414 34.992 24.604 35.021C24.6665 35.05 24.7365 35.0593 24.8044 35.0476C24.8724 35.0359 24.9352 35.0039 24.9846 34.9557L27.4384 32.5424L31.9248 35.9382C32.4081 36.3045 33.1083 36.0463 33.2385 35.4542L36.3623 21.2707C36.5406 20.4617 35.7474 19.7787 34.9742 20.0748L17.5121 26.7617C16.964 26.9716 16.9792 27.7517 17.5341 27.9404Z" />
</svg>