<svg width="57" height="57" viewBox="0 0 57 57" xmlns="http://www.w3.org/2000/svg">
    <path
        d="M35.8654 29.6005C35.5097 29.1513 35.6115 28.9514 35.8654 28.5499C35.87 28.5453 38.8062 24.488 39.1087 23.1121L39.1105 23.1112C39.2609 22.6097 39.1105 22.2412 38.3836 22.2412H35.9782C35.3658 22.2412 35.0835 22.5575 34.9322 22.9113C34.9322 22.9113 33.7075 25.8429 31.975 27.7432C31.4158 28.2923 31.1573 28.4683 30.852 28.4683C30.7017 28.4683 30.4679 28.2923 30.4679 27.7909V23.1112C30.4679 22.5098 30.2965 22.2412 29.7895 22.2412H26.0072C25.6232 22.2412 25.3949 22.5217 25.3949 22.783C25.3949 23.3532 26.2612 23.4843 26.351 25.0885V28.5692C26.351 29.3319 26.2126 29.4721 25.9055 29.4721C25.0878 29.4721 23.1031 26.5286 21.927 23.1597C21.6896 22.5061 21.4577 22.2421 20.8407 22.2421H18.4344C17.7478 22.2421 17.6094 22.5584 17.6094 22.9122C17.6094 23.5374 18.4271 26.6459 21.4118 30.7528C23.4011 33.556 26.2025 35.075 28.7509 35.075C30.2827 35.075 30.4697 34.7376 30.4697 34.1574C30.4697 31.4788 30.3313 31.2258 31.0986 31.2258C31.4543 31.2258 32.0666 31.4018 33.4967 32.7539C35.1311 34.3572 35.3997 35.075 36.3146 35.075H38.72C39.4057 35.075 39.7531 34.7376 39.5533 34.0721C39.0959 32.6723 36.0048 29.793 35.8654 29.6005Z" />
</svg>