<svg width="56" height="56" viewBox="0 0 56 56" xmlns="http://www.w3.org/2000/svg">
    <path
        d="M23.3884 34.9445C24.6475 35.6436 26.0641 36.0099 27.5043 36.0088C32.1975 36.0088 36.0001 32.1978 36.0001 27.5046C36.0001 22.8113 32.1975 19.0088 27.5043 19.0088C22.811 19.0088 19 22.8113 19 27.5046C19 29.0139 19.3959 30.4164 20.0807 31.6453L19 36.0088L23.3884 34.9445ZM23.8584 23.7518C23.9574 23.6592 24.0774 23.592 24.2081 23.556C24.3388 23.5201 24.4764 23.5164 24.6088 23.5454L24.8814 23.6031C25.1534 23.6607 25.3762 23.8423 25.4831 24.09L26.0192 25.2776C26.0842 25.4204 26.1064 25.5791 26.083 25.7343C26.0596 25.8895 25.9917 26.0345 25.8875 26.1518L25.5578 26.5398C25.5041 26.6028 25.4707 26.6806 25.4618 26.7629C25.4529 26.8452 25.469 26.9282 25.508 27.0012C26.4812 28.7498 27.7599 29.3193 28.3288 29.4924C28.4108 29.5189 28.4993 29.517 28.5801 29.4872C28.6609 29.4574 28.7293 29.4012 28.7744 29.3278L29.0136 28.9563C29.2444 28.6017 29.6985 28.4778 30.2012 28.7255L31.1909 29.2204C31.5709 29.4019 31.7434 29.8469 31.6037 30.2434C31.1004 31.703 29.8139 31.5214 29.8139 31.5214C26.9603 31.4474 24.7242 28.816 23.7594 27.4633C23.3138 26.8282 23.0418 26.0608 23.1243 25.2776C23.2069 24.5022 23.5694 24.0153 23.8584 23.7518Z" />
</svg>