<svg width="57" height="57" viewBox="0 0 57 57" xmlns="http://www.w3.org/2000/svg">
    <path
        d="M37.0067 24.2772L37.0287 24.4214C36.9281 24.0546 36.7357 23.7196 36.4697 23.4479C36.2036 23.1761 35.8727 22.9767 35.5082 22.8684L35.4927 22.8647C34.117 22.4912 28.581 22.4912 28.581 22.4912C28.581 22.4912 23.059 22.4839 21.6693 22.8647C21.3042 22.9704 20.9719 23.1674 20.704 23.437C20.436 23.7067 20.2411 24.0401 20.1377 24.4059L20.134 24.4214C19.6201 27.1059 19.6164 30.3316 20.1568 33.2058L20.134 33.0602C20.2346 33.427 20.427 33.762 20.6931 34.0337C20.9592 34.3055 21.2901 34.5049 21.6546 34.6132L21.6701 34.6169C23.0443 34.9911 28.5818 34.9911 28.5818 34.9911C28.5818 34.9911 34.103 34.9911 35.4935 34.6169C35.8588 34.5113 36.1912 34.3145 36.4593 34.0448C36.7274 33.7752 36.9224 33.4416 37.0258 33.0757L37.0295 33.0602C37.2633 31.8117 37.3971 30.375 37.3971 28.9073L37.3964 28.7448L37.3971 28.5757C37.3971 27.1074 37.2633 25.6706 37.0067 24.2772ZM26.8149 31.4257V26.0632L31.4222 28.7485L26.8149 31.4257Z" />
</svg>