<svg xmlns="http://www.w3.org/2000/svg" width="12" height="12" viewBox="0 0 12 12">
    <path
        d="M10.0205 8.95978C10.65 8.13245 11.036 7.1457 11.1348 6.11078C11.2336 5.07585 11.0413 4.03391 10.5796 3.10241C10.118 2.1709 9.40527 1.38688 8.5219 0.838732C7.63852 0.29058 6.61958 9.38136e-05 5.57995 2.05814e-05C4.84689 -0.00197688 4.12072 0.141438 3.44346 0.421964C2.76619 0.702491 2.15129 1.11456 1.63435 1.63431C0.853975 2.41468 0.322531 3.40893 0.107223 4.49133C-0.108084 5.57373 0.0024147 6.69568 0.424747 7.71528C0.84708 8.73488 1.56228 9.60635 2.4799 10.2195C3.39752 10.8326 4.47634 11.1599 5.57995 11.1599C6.80141 11.1632 7.9897 10.7626 8.95982 10.0204L10.7197 11.7803C10.8603 11.921 11.0511 12 11.25 12C11.4489 12 11.6397 11.921 11.7803 11.7803C11.921 11.6397 12 11.4489 12 11.25C12 11.0511 11.921 10.8603 11.7804 10.7197L10.0205 8.95978ZM5.57995 9.65986C4.77301 9.65987 3.9842 9.4206 3.31325 8.97229C2.6423 8.52398 2.11936 7.88679 1.81056 7.14127C1.50176 6.39576 1.42097 5.57542 1.5784 4.78399C1.73583 3.99256 2.12441 3.26558 2.69501 2.695C4.28578 1.10423 6.87417 1.10423 8.46489 2.695C9.03548 3.26559 9.42405 3.99256 9.58148 4.78398C9.7389 5.57541 9.65811 6.39574 9.34931 7.14125C9.04051 7.88675 8.51758 8.52395 7.84665 8.97226C7.17571 9.42057 6.38691 9.65986 5.57998 9.65986H5.57995Z" />
</svg>