<svg width="455" height="212" viewBox="0 0 455 212" fill="none" xmlns="http://www.w3.org/2000/svg">
    <path fill-rule="evenodd" clip-rule="evenodd"
        d="M162.235 70V69.9843C162.235 28.4002 186.96 1.75418 226.457 0H234.825C273.829 1.74393 298.802 28.0759 298.802 68.053V70H262.108V69.9843C262.108 46.5335 250.797 33.5665 230.932 33.5665C211.068 33.5665 198.929 47.3611 198.929 69.9843V70H162.235ZM125.384 70V3.49431H94.4845L51 70H85.6526L88.6908 65.2941V70H125.384ZM434.146 70V3.49431H403.246L359.762 70H394.414L397.453 65.2941V70H434.146Z"
        fill="#02C498" />
    <path fill-rule="evenodd" clip-rule="evenodd"
        d="M164.944 140.325V71.0765C164.944 71.051 164.944 71.0255 164.944 71H201.638C201.638 71.0255 201.638 71.051 201.638 71.0765V139.222C201.638 139.821 201.644 140.414 201.657 141H164.946C164.945 140.776 164.944 140.551 164.944 140.325ZM436.855 71V141H400.161V71H436.855ZM362.531 71L316.762 141H351.99L397.183 71H362.531ZM301.511 71V140.325C301.511 140.551 301.51 140.776 301.509 141H264.812C264.816 140.685 264.817 140.368 264.817 140.05V71.0765C264.817 71.051 264.817 71.0255 264.817 71H301.511ZM128.093 141V71H91.3996V141H128.093ZM53.7692 71L8 141H43.228L88.421 71H53.7692Z"
        fill="#02C498" />
    <path fill-rule="evenodd" clip-rule="evenodd"
        d="M298.119 142L261.422 142C261.172 167.021 250.962 179.398 230.527 179.398C210.054 179.398 198.787 166.248 198.267 142H161.556C161.791 181.175 182.501 206.639 217.292 212H245.513C278.745 206.69 297.904 181.607 298.119 142ZM313.372 142L308.762 149.05V178.847H396.771V209.471H433.465V178.847H454.985V146.016H433.465V142H396.771V146.016H346.007L348.6 142H313.372ZM124.703 142H88.0095V146.016H37.2454L39.8379 142H4.60988L0 149.05V178.847H88.0095V209.471H124.703V178.847H146.223V146.016H124.703V142Z"
        fill="#02C498" />
</svg>