<svg width="376" height="1579" viewBox="0 0 376 1579" fill="none" xmlns="http://www.w3.org/2000/svg"
    preserveAspectRatio="none">
    <mask id="mask0_2313_9344" style="mask-type:alpha" maskUnits="userSpaceOnUse" x="0" y="0" width="376" height="1579">
        <path fill-rule="evenodd" clip-rule="evenodd"
            d="M228.961 0.244141C231.247 0.244141 233.424 1.22219 234.942 2.93142L274.538 47.5103C277.721 51.0933 283.318 51.0933 286.501 47.5103L326.097 2.93143C327.615 1.2222 329.792 0.244141 332.078 0.244141H367.52C371.938 0.244141 375.52 3.8259 375.52 8.24418V1570.24C375.52 1574.66 371.938 1578.24 367.52 1578.24H257.636C251.227 1578.24 247.42 1571.08 251.003 1565.77L257.109 1556.72C260.692 1551.4 256.885 1544.24 250.476 1544.24H129.256C126.596 1544.24 124.11 1545.57 122.623 1547.77L104.453 1574.72C102.966 1576.92 100.48 1578.24 97.8205 1578.24H8.51953C4.10125 1578.24 0.519531 1574.66 0.519531 1570.24V780.864C0.519531 778.463 1.59789 776.189 3.45694 774.67L34.9404 748.939C38.8569 745.738 38.8569 739.751 34.9404 736.55L3.45694 710.819C1.59789 709.299 0.519531 707.025 0.519531 704.624V8.24414C0.519531 3.82586 4.10125 0.244141 8.51953 0.244141H228.961Z"
            fill="#D9D9D9" />
    </mask>
    <g mask="url(#mask0_2313_9344)">
        <rect x="-633.48" y="-121.488" width="1267.43" height="1700.03" fill="black" />
    </g>
</svg>