<svg xmlns="http://www.w3.org/2000/svg" width="104" height="112" viewBox="0 0 104 112" fill="none">
    <path d="M9 73.2945V110H97V16" stroke="white" stroke-width="3" stroke-linecap="round" stroke-linejoin="round" />
    <path fill-rule="evenodd" clip-rule="evenodd"
        d="M9 73C11.7614 73 14 70.7614 14 68C14 65.2386 11.7614 63 9 63C6.23858 63 4 65.2386 4 68C4 70.7614 6.23858 73 9 73Z"
        stroke="white" stroke-width="3" />
    <path fill-rule="evenodd" clip-rule="evenodd"
        d="M97 16C99.7614 16 102 13.7614 102 11C102 8.23858 99.7614 6 97 6C94.2386 6 92 8.23858 92 11C92 13.7614 94.2386 16 97 16Z"
        stroke="white" stroke-width="3" />
    <path d="M30.1016 45.7002H75.9016V87.5002H30.1016V45.7002Z" fill="url(#paint0_linear_290_19866)" />
    <path fill-rule="evenodd" clip-rule="evenodd"
        d="M58.4997 25.9H60.7H62.8997H83.6V96.3H22.4V25.9H43.0997H45.3H47.4997C47.4997 22.8624 49.9622 20.4 52.9997 20.4C56.0373 20.4 58.4997 22.8624 58.4997 25.9ZM44.1288 21.5C45.7488 18.2402 49.1126 16 52.9997 16C56.8868 16 60.2507 18.2402 61.8707 21.5H88V100.7H18V21.5H44.1288ZM34.5 25.9003H38.9V33.6003H67.1V25.9003H71.5V38.0003H34.5V25.9003Z"
        fill="#02C498" />
    <path fill-rule="evenodd" clip-rule="evenodd"
        d="M61.3077 54.6001L65 58.2924L50.2309 73.0614L50.2307 73.0612L50.2307 73.0613L41 63.8306L44.6923 60.1383L50.2309 65.6769L61.3077 54.6001Z"
        fill="#02C498" />
    <path d="M0 42H10V52H0V42Z" fill="url(#paint1_linear_290_19866)" />
    <path d="M42 0H52V10H42V0Z" fill="url(#paint2_linear_290_19866)" />
    <path d="M0 28H10V38H0V28Z" fill="url(#paint3_linear_290_19866)" />
    <path d="M28 0H38V10H28V0Z" fill="url(#paint4_linear_290_19866)" />
    <path d="M0 14H10V24H0V14Z" fill="url(#paint5_linear_290_19866)" />
    <path d="M14 0H24V10H14V0Z" fill="url(#paint6_linear_290_19866)" />
    <path d="M0 0H10V10H0V0Z" fill="url(#paint7_linear_290_19866)" />
    <defs>
        <linearGradient id="paint0_linear_290_19866" x1="53.0016" y1="45.7002" x2="53.0016" y2="87.5002"
            gradientUnits="userSpaceOnUse">
            <stop stop-color="#02C498" />
            <stop offset="1" stop-color="white" stop-opacity="0" />
        </linearGradient>
        <linearGradient id="paint1_linear_290_19866" x1="26" y1="0" x2="26" y2="52" gradientUnits="userSpaceOnUse">
            <stop stop-color="#02C498" />
            <stop offset="1" stop-color="white" stop-opacity="0" />
        </linearGradient>
        <linearGradient id="paint2_linear_290_19866" x1="26" y1="0" x2="26" y2="52" gradientUnits="userSpaceOnUse">
            <stop stop-color="#02C498" />
            <stop offset="1" stop-color="white" stop-opacity="0" />
        </linearGradient>
        <linearGradient id="paint3_linear_290_19866" x1="26" y1="0" x2="26" y2="52" gradientUnits="userSpaceOnUse">
            <stop stop-color="#02C498" />
            <stop offset="1" stop-color="white" stop-opacity="0" />
        </linearGradient>
        <linearGradient id="paint4_linear_290_19866" x1="26" y1="0" x2="26" y2="52" gradientUnits="userSpaceOnUse">
            <stop stop-color="#02C498" />
            <stop offset="1" stop-color="white" stop-opacity="0" />
        </linearGradient>
        <linearGradient id="paint5_linear_290_19866" x1="26" y1="0" x2="26" y2="52" gradientUnits="userSpaceOnUse">
            <stop stop-color="#02C498" />
            <stop offset="1" stop-color="white" stop-opacity="0" />
        </linearGradient>
        <linearGradient id="paint6_linear_290_19866" x1="26" y1="0" x2="26" y2="52" gradientUnits="userSpaceOnUse">
            <stop stop-color="#02C498" />
            <stop offset="1" stop-color="white" stop-opacity="0" />
        </linearGradient>
        <linearGradient id="paint7_linear_290_19866" x1="26" y1="0" x2="26" y2="52" gradientUnits="userSpaceOnUse">
            <stop stop-color="#02C498" />
            <stop offset="1" stop-color="white" stop-opacity="0" />
        </linearGradient>
    </defs>
</svg>