<svg xmlns="http://www.w3.org/2000/svg" width="134" height="7" viewBox="0 0 134 7" fill="none">
    <path d="M0 6.57492V0H6.57492V6.57492H0Z" fill="url(#paint0_linear_300_7651)" />
    <path d="M8.47503 6.57492V0H15.0499V6.57492H8.47503Z" fill="url(#paint1_linear_300_7651)" />
    <path d="M16.9501 6.57492V0H23.525V6.57492H16.9501Z" fill="url(#paint2_linear_300_7651)" />
    <path d="M25.4251 6.57492V0H32V6.57492H25.4251Z" fill="url(#paint3_linear_300_7651)" />
    <path d="M68 6.57492V0H74.5749V6.57492H68Z" fill="url(#paint4_linear_300_7651)" />
    <path d="M76.475 6.57492V0H83.0499V6.57492H76.475Z" fill="url(#paint5_linear_300_7651)" />
    <path d="M84.9501 6.57492V0H91.525V6.57492H84.9501Z" fill="url(#paint6_linear_300_7651)" />
    <path d="M93.4251 6.57492V0H100V6.57492H93.4251Z" fill="url(#paint7_linear_300_7651)" />
    <path d="M34 6.57492V0H40.5749V6.57492H34Z" fill="url(#paint8_linear_300_7651)" />
    <path d="M42.475 6.57492V0H49.0499V6.57492H42.475Z" fill="url(#paint9_linear_300_7651)" />
    <path d="M50.9501 6.57492V0H57.525V6.57492H50.9501Z" fill="url(#paint10_linear_300_7651)" />
    <path d="M59.4251 6.57492V0H66V6.57492H59.4251Z" fill="url(#paint11_linear_300_7651)" />
    <path d="M102 6.57492V0H108.575V6.57492H102Z" fill="url(#paint12_linear_300_7651)" />
    <path d="M110.475 6.57492V0H117.05V6.57492H110.475Z" fill="url(#paint13_linear_300_7651)" />
    <path d="M118.95 6.57492V0H125.525V6.57492H118.95Z" fill="url(#paint14_linear_300_7651)" />
    <path d="M127.425 6.57492V0H134V6.57492H127.425Z" fill="url(#paint15_linear_300_7651)" />
    <defs>
        <linearGradient id="paint0_linear_300_7651" x1="22.4844" y1="49.4024" x2="-29.7681" y2="32.3015"
            gradientUnits="userSpaceOnUse">
            <stop stop-color="#02C498" />
            <stop offset="1" stop-color="white" stop-opacity="0" />
        </linearGradient>
        <linearGradient id="paint1_linear_300_7651" x1="22.4844" y1="49.4024" x2="-29.7681" y2="32.3015"
            gradientUnits="userSpaceOnUse">
            <stop stop-color="#02C498" />
            <stop offset="1" stop-color="white" stop-opacity="0" />
        </linearGradient>
        <linearGradient id="paint2_linear_300_7651" x1="22.4844" y1="49.4024" x2="-29.7681" y2="32.3015"
            gradientUnits="userSpaceOnUse">
            <stop stop-color="#02C498" />
            <stop offset="1" stop-color="white" stop-opacity="0" />
        </linearGradient>
        <linearGradient id="paint3_linear_300_7651" x1="22.4844" y1="49.4024" x2="-29.7681" y2="32.3015"
            gradientUnits="userSpaceOnUse">
            <stop stop-color="#02C498" />
            <stop offset="1" stop-color="white" stop-opacity="0" />
        </linearGradient>
        <linearGradient id="paint4_linear_300_7651" x1="90.4844" y1="49.4024" x2="38.2319" y2="32.3015"
            gradientUnits="userSpaceOnUse">
            <stop stop-color="#02C498" />
            <stop offset="1" stop-color="white" stop-opacity="0" />
        </linearGradient>
        <linearGradient id="paint5_linear_300_7651" x1="90.4844" y1="49.4024" x2="38.2319" y2="32.3015"
            gradientUnits="userSpaceOnUse">
            <stop stop-color="#02C498" />
            <stop offset="1" stop-color="white" stop-opacity="0" />
        </linearGradient>
        <linearGradient id="paint6_linear_300_7651" x1="90.4844" y1="49.4024" x2="38.2319" y2="32.3015"
            gradientUnits="userSpaceOnUse">
            <stop stop-color="#02C498" />
            <stop offset="1" stop-color="white" stop-opacity="0" />
        </linearGradient>
        <linearGradient id="paint7_linear_300_7651" x1="90.4844" y1="49.4024" x2="38.2319" y2="32.3015"
            gradientUnits="userSpaceOnUse">
            <stop stop-color="#02C498" />
            <stop offset="1" stop-color="white" stop-opacity="0" />
        </linearGradient>
        <linearGradient id="paint8_linear_300_7651" x1="56.4844" y1="49.4024" x2="4.23191" y2="32.3015"
            gradientUnits="userSpaceOnUse">
            <stop stop-color="#02C498" />
            <stop offset="1" stop-color="white" stop-opacity="0" />
        </linearGradient>
        <linearGradient id="paint9_linear_300_7651" x1="56.4844" y1="49.4024" x2="4.23191" y2="32.3015"
            gradientUnits="userSpaceOnUse">
            <stop stop-color="#02C498" />
            <stop offset="1" stop-color="white" stop-opacity="0" />
        </linearGradient>
        <linearGradient id="paint10_linear_300_7651" x1="56.4844" y1="49.4024" x2="4.23191" y2="32.3015"
            gradientUnits="userSpaceOnUse">
            <stop stop-color="#02C498" />
            <stop offset="1" stop-color="white" stop-opacity="0" />
        </linearGradient>
        <linearGradient id="paint11_linear_300_7651" x1="56.4844" y1="49.4024" x2="4.23191" y2="32.3015"
            gradientUnits="userSpaceOnUse">
            <stop stop-color="#02C498" />
            <stop offset="1" stop-color="white" stop-opacity="0" />
        </linearGradient>
        <linearGradient id="paint12_linear_300_7651" x1="124.484" y1="49.4024" x2="72.2319" y2="32.3015"
            gradientUnits="userSpaceOnUse">
            <stop stop-color="#02C498" />
            <stop offset="1" stop-color="white" stop-opacity="0" />
        </linearGradient>
        <linearGradient id="paint13_linear_300_7651" x1="124.484" y1="49.4024" x2="72.2319" y2="32.3015"
            gradientUnits="userSpaceOnUse">
            <stop stop-color="#02C498" />
            <stop offset="1" stop-color="white" stop-opacity="0" />
        </linearGradient>
        <linearGradient id="paint14_linear_300_7651" x1="124.484" y1="49.4024" x2="72.2319" y2="32.3015"
            gradientUnits="userSpaceOnUse">
            <stop stop-color="#02C498" />
            <stop offset="1" stop-color="white" stop-opacity="0" />
        </linearGradient>
        <linearGradient id="paint15_linear_300_7651" x1="124.484" y1="49.4024" x2="72.2319" y2="32.3015"
            gradientUnits="userSpaceOnUse">
            <stop stop-color="#02C498" />
            <stop offset="1" stop-color="white" stop-opacity="0" />
        </linearGradient>
    </defs>
</svg>