<svg xmlns="http://www.w3.org/2000/svg" width="7" height="134" viewBox="0 0 7 134" fill="none">
    <path d="M6.57492 134H0L0 127.425H6.57492L6.57492 134Z" fill="url(#paint0_linear_450_15851)" />
    <path d="M6.57492 125.525H0L0 118.95H6.57492V125.525Z" fill="url(#paint1_linear_450_15851)" />
    <path d="M6.57492 117.05H0L0 110.475H6.57492V117.05Z" fill="url(#paint2_linear_450_15851)" />
    <path d="M6.57492 108.575H0L0 102H6.57492L6.57492 108.575Z" fill="url(#paint3_linear_450_15851)" />
    <path d="M6.57492 66H0L0 59.4251H6.57492L6.57492 66Z" fill="url(#paint4_linear_450_15851)" />
    <path d="M6.57492 57.525H0L0 50.9501H6.57492V57.525Z" fill="url(#paint5_linear_450_15851)" />
    <path d="M6.57492 49.0499H0L0 42.475H6.57492V49.0499Z" fill="url(#paint6_linear_450_15851)" />
    <path d="M6.57492 40.5749H0L0 34H6.57492L6.57492 40.5749Z" fill="url(#paint7_linear_450_15851)" />
    <path d="M6.57492 100H0L0 93.4251H6.57492L6.57492 100Z" fill="url(#paint8_linear_450_15851)" />
    <path d="M6.57492 91.525H0L0 84.9501H6.57492V91.525Z" fill="url(#paint9_linear_450_15851)" />
    <path d="M6.57492 83.0499H0L0 76.475H6.57492V83.0499Z" fill="url(#paint10_linear_450_15851)" />
    <path d="M6.57492 74.5749H0L0 68H6.57492L6.57492 74.5749Z" fill="url(#paint11_linear_450_15851)" />
    <path d="M6.57492 32H0L0 25.4251H6.57492L6.57492 32Z" fill="url(#paint12_linear_450_15851)" />
    <path d="M6.57492 23.525H0L0 16.9501H6.57492V23.525Z" fill="url(#paint13_linear_450_15851)" />
    <path d="M6.57492 15.0499H0L0 8.47503H6.57492V15.0499Z" fill="url(#paint14_linear_450_15851)" />
    <path d="M6.57492 6.57492H0L0 0H6.57492L6.57492 6.57492Z" fill="url(#paint15_linear_450_15851)" />
    <defs>
        <linearGradient id="paint0_linear_450_15851" x1="49.4024" y1="111.516" x2="32.3015" y2="163.768"
            gradientUnits="userSpaceOnUse">
            <stop stop-color="#02C498" />
            <stop offset="1" stop-color="white" stop-opacity="0" />
        </linearGradient>
        <linearGradient id="paint1_linear_450_15851" x1="49.4024" y1="111.516" x2="32.3015" y2="163.768"
            gradientUnits="userSpaceOnUse">
            <stop stop-color="#02C498" />
            <stop offset="1" stop-color="white" stop-opacity="0" />
        </linearGradient>
        <linearGradient id="paint2_linear_450_15851" x1="49.4024" y1="111.516" x2="32.3015" y2="163.768"
            gradientUnits="userSpaceOnUse">
            <stop stop-color="#02C498" />
            <stop offset="1" stop-color="white" stop-opacity="0" />
        </linearGradient>
        <linearGradient id="paint3_linear_450_15851" x1="49.4024" y1="111.516" x2="32.3015" y2="163.768"
            gradientUnits="userSpaceOnUse">
            <stop stop-color="#02C498" />
            <stop offset="1" stop-color="white" stop-opacity="0" />
        </linearGradient>
        <linearGradient id="paint4_linear_450_15851" x1="49.4024" y1="43.5156" x2="32.3015" y2="95.7681"
            gradientUnits="userSpaceOnUse">
            <stop stop-color="#02C498" />
            <stop offset="1" stop-color="white" stop-opacity="0" />
        </linearGradient>
        <linearGradient id="paint5_linear_450_15851" x1="49.4024" y1="43.5156" x2="32.3015" y2="95.7681"
            gradientUnits="userSpaceOnUse">
            <stop stop-color="#02C498" />
            <stop offset="1" stop-color="white" stop-opacity="0" />
        </linearGradient>
        <linearGradient id="paint6_linear_450_15851" x1="49.4024" y1="43.5156" x2="32.3015" y2="95.7681"
            gradientUnits="userSpaceOnUse">
            <stop stop-color="#02C498" />
            <stop offset="1" stop-color="white" stop-opacity="0" />
        </linearGradient>
        <linearGradient id="paint7_linear_450_15851" x1="49.4024" y1="43.5156" x2="32.3015" y2="95.7681"
            gradientUnits="userSpaceOnUse">
            <stop stop-color="#02C498" />
            <stop offset="1" stop-color="white" stop-opacity="0" />
        </linearGradient>
        <linearGradient id="paint8_linear_450_15851" x1="49.4024" y1="77.5156" x2="32.3015" y2="129.768"
            gradientUnits="userSpaceOnUse">
            <stop stop-color="#02C498" />
            <stop offset="1" stop-color="white" stop-opacity="0" />
        </linearGradient>
        <linearGradient id="paint9_linear_450_15851" x1="49.4024" y1="77.5156" x2="32.3015" y2="129.768"
            gradientUnits="userSpaceOnUse">
            <stop stop-color="#02C498" />
            <stop offset="1" stop-color="white" stop-opacity="0" />
        </linearGradient>
        <linearGradient id="paint10_linear_450_15851" x1="49.4024" y1="77.5156" x2="32.3015" y2="129.768"
            gradientUnits="userSpaceOnUse">
            <stop stop-color="#02C498" />
            <stop offset="1" stop-color="white" stop-opacity="0" />
        </linearGradient>
        <linearGradient id="paint11_linear_450_15851" x1="49.4024" y1="77.5156" x2="32.3015" y2="129.768"
            gradientUnits="userSpaceOnUse">
            <stop stop-color="#02C498" />
            <stop offset="1" stop-color="white" stop-opacity="0" />
        </linearGradient>
        <linearGradient id="paint12_linear_450_15851" x1="49.4024" y1="9.51558" x2="32.3015" y2="61.7681"
            gradientUnits="userSpaceOnUse">
            <stop stop-color="#02C498" />
            <stop offset="1" stop-color="white" stop-opacity="0" />
        </linearGradient>
        <linearGradient id="paint13_linear_450_15851" x1="49.4024" y1="9.51558" x2="32.3015" y2="61.7681"
            gradientUnits="userSpaceOnUse">
            <stop stop-color="#02C498" />
            <stop offset="1" stop-color="white" stop-opacity="0" />
        </linearGradient>
        <linearGradient id="paint14_linear_450_15851" x1="49.4024" y1="9.51558" x2="32.3015" y2="61.7681"
            gradientUnits="userSpaceOnUse">
            <stop stop-color="#02C498" />
            <stop offset="1" stop-color="white" stop-opacity="0" />
        </linearGradient>
        <linearGradient id="paint15_linear_450_15851" x1="49.4024" y1="9.51558" x2="32.3015" y2="61.7681"
            gradientUnits="userSpaceOnUse">
            <stop stop-color="#02C498" />
            <stop offset="1" stop-color="white" stop-opacity="0" />
        </linearGradient>
    </defs>
</svg>