<svg width="376" height="700" viewBox="0 0 376 700" xmlns="http://www.w3.org/2000/svg" preserveAspectRatio="none">

    <path fill-rule="evenodd" clip-rule="evenodd"
        d="M242.852 0C245.636 0 248.219 1.44697 249.673 3.82052L273.679 42.9999C276.8 48.0939 284.2 48.0939 287.321 42.9999L311.327 3.82052C312.781 1.44697 315.364 0 318.148 0H367.5C371.918 0 375.5 3.58174 375.5 8.00002V692C375.5 696.418 371.918 700 367.5 700H248.434C242.127 700 238.859 692.475 243.165 687.867V687.867C247.47 683.258 244.202 675.733 237.896 675.733H139.724C137.508 675.733 135.391 676.653 133.878 678.272L115.951 697.461C114.438 699.081 112.321 700 110.105 700H8.5C4.08172 700 0.5 696.418 0.5 692V478.774C0.5 476.446 1.51348 474.234 3.27611 472.715L58.4725 425.126C62.174 421.934 62.174 416.199 58.4725 413.008L3.27611 365.419C1.51347 363.899 0.5 361.687 0.5 359.36V8C0.5 3.58172 4.08172 0 8.5 0H242.852Z" />

</svg>