<svg width="73" height="21" viewBox="0 0 73 21" fill="none" xmlns="http://www.w3.org/2000/svg">
    <path
        d="M24.2786 15.1076C23.4924 13.8899 22.8644 12.9983 22.3946 12.4326C21.9248 11.8574 21.4981 11.4738 21.1146 11.2821C20.7407 11.0808 20.2901 10.9801 19.7628 10.9801H19.7484V15.1076H17.5049V5.04053H19.7484V8.96668H19.7772C20.2949 8.96668 20.7407 8.8708 21.1146 8.67905C21.4886 8.48729 21.896 8.11817 22.3371 7.57167C22.7877 7.02517 23.3821 6.18146 24.1204 5.04053H26.6659C25.8701 6.32527 25.2277 7.27925 24.7388 7.90244C24.2594 8.52564 23.8184 8.96668 23.4157 9.22554C23.013 9.47482 22.548 9.62343 22.0207 9.67137V10.2898C22.5959 10.3281 23.0945 10.4815 23.5163 10.75C23.9478 11.0088 24.4176 11.4643 24.9257 12.1162C25.4435 12.7682 26.1194 13.7653 26.9535 15.1076H24.2786Z"
        fill="#212121" />
    <path
        d="M31.8254 15.0932C31.4994 15.122 31.1974 15.1363 30.9193 15.1363C29.8455 15.1363 29.0785 14.9158 28.6183 14.4748C28.1581 14.0338 27.928 13.3195 27.928 12.3319V5.04053H30.0565V12.0156C30.0565 12.4662 30.1236 12.7778 30.2578 12.9503C30.4016 13.1133 30.6892 13.1948 31.1207 13.1948C31.322 13.1948 31.5569 13.1805 31.8254 13.1517V15.0932Z"
        fill="#212121" />
    <path
        d="M34.9959 15.2801C34.1906 15.2801 33.5482 15.0932 33.0688 14.7193C32.599 14.3358 32.3641 13.8228 32.3641 13.1805C32.3641 12.5668 32.5703 12.0635 32.9825 11.6704C33.3948 11.2773 33.9605 11.0424 34.6796 10.9657L36.995 10.7356C37.273 10.7068 37.4887 10.6301 37.6421 10.5055C37.8051 10.3713 37.8866 10.2035 37.8866 10.0021C37.8866 9.76245 37.7668 9.57549 37.5271 9.44126C37.2874 9.30704 36.9518 9.23992 36.5204 9.23992C36.0602 9.23992 35.6815 9.32621 35.3842 9.49879C35.0966 9.66178 34.9145 9.90147 34.8377 10.2179H32.7381C32.8915 9.4125 33.2941 8.7893 33.9461 8.34827C34.6076 7.89765 35.4562 7.67234 36.4916 7.67234C37.6134 7.67234 38.4763 7.9408 39.0803 8.4777C39.6939 9.00503 40.0007 9.76245 40.0007 10.75V12.7634C40.0007 13.0223 40.0678 13.1948 40.202 13.2811C40.3363 13.3578 40.5999 13.3818 40.993 13.353V15.1076C40.7533 15.1363 40.528 15.1507 40.3171 15.1507C39.2433 15.1507 38.7064 14.7816 38.7064 14.0433C38.7064 13.842 38.7399 13.6359 38.807 13.4249C38.3538 13.8043 37.5223 14.3933 36.9662 14.748C36.4197 15.1028 35.763 15.2801 34.9959 15.2801ZM35.5568 13.7269C36.1513 13.7269 36.6738 13.54 37.1244 13.1661C37.5846 12.7922 37.9346 12.2648 38.1743 11.5841C37.9292 11.6346 37.4576 11.8232 37.0802 11.9176C36.8105 11.9922 36.5683 12.0395 36.204 12.0875L35.413 12.1881C35.1062 12.2265 34.8665 12.3176 34.6939 12.4614C34.5309 12.6052 34.4494 12.7874 34.4494 13.0079C34.4494 13.2284 34.5453 13.4058 34.7371 13.54C34.9288 13.6646 35.2021 13.7269 35.5568 13.7269Z"
        fill="#212121" />
    <path
        d="M46.6649 15.0788C46.1567 15.1267 45.7348 15.1507 45.3993 15.1507C44.6898 15.1507 44.1289 15.0596 43.7166 14.8775C43.3044 14.6857 43.0072 14.3933 42.825 14.0002C42.6428 13.5975 42.5517 13.0606 42.5517 12.3895V9.61384H41.2718V7.8593C41.7224 7.8593 42.0628 7.80177 42.2929 7.68672C42.5326 7.56208 42.6956 7.35595 42.7818 7.06832C42.8777 6.7711 42.9257 6.33966 42.9257 5.77398H44.9966C44.9582 6.31089 44.8432 6.72316 44.6514 7.01079C44.4693 7.28883 44.1337 7.56688 43.6447 7.84492L44.0849 7.8593C44.6038 7.84492 44.6802 7.84492 45.1226 7.8593C45.5 7.84492 45.9889 7.83533 46.6217 7.84492V9.61384H44.6802V12.3032C44.6802 12.6771 44.7569 12.9408 44.9103 13.0942C45.0637 13.2476 45.3513 13.3243 45.7732 13.3243C45.965 13.3243 46.2622 13.3003 46.6649 13.2524V15.0788Z"
        fill="#212121" />
    <path
        d="M51.6014 15.2945C50.8344 15.2945 50.1441 15.1315 49.5305 14.8056C48.9169 14.47 48.4327 14.0146 48.078 13.4393C47.7328 12.8545 47.5602 12.2025 47.5602 11.4834C47.5602 10.7644 47.7328 10.1172 48.078 9.54193C48.4327 8.95709 48.9169 8.50167 49.5305 8.17569C50.1441 7.84012 50.8344 7.67234 51.6014 7.67234C52.2821 7.67234 52.9053 7.80177 53.471 8.06064C54.0463 8.31951 54.5209 8.67904 54.8948 9.13925C55.2687 9.59946 55.5084 10.1268 55.6139 10.7212H53.6004C53.4566 10.3281 53.2121 10.0213 52.867 9.8008C52.5314 9.58029 52.1383 9.47003 51.6877 9.47003C51.0933 9.47003 50.6043 9.65699 50.2208 10.0309C49.8469 10.4048 49.6599 10.889 49.6599 11.4834C49.6599 12.0779 49.8469 12.562 50.2208 12.936C50.5947 13.3003 51.0837 13.4825 51.6877 13.4825C52.1671 13.4825 52.5794 13.3626 52.9245 13.1229C53.2793 12.8736 53.519 12.5381 53.6436 12.1162H55.6426C55.5467 12.7298 55.3118 13.2811 54.9379 13.7701C54.564 14.2495 54.0894 14.6234 53.5142 14.8919C52.9389 15.1603 52.3013 15.2945 51.6014 15.2945Z"
        fill="#212121" />
    <path
        d="M60.5971 15.2945C59.8204 15.2945 59.1206 15.1315 58.4974 14.8056C57.8837 14.47 57.3996 14.0146 57.0448 13.4393C56.6997 12.8641 56.5271 12.2121 56.5271 11.4834C56.5271 10.7548 56.6997 10.1028 57.0448 9.52755C57.3996 8.94271 57.8885 8.48729 58.5117 8.16131C59.1349 7.83533 59.8348 7.67234 60.6114 7.67234C61.3976 7.67234 62.1023 7.84012 62.7255 8.17569C63.3487 8.50167 63.8329 8.95709 64.178 9.54193C64.5232 10.1172 64.6958 10.7692 64.6958 11.4978C64.6958 11.7087 64.6814 11.9245 64.6526 12.145H58.598C58.6939 12.6052 58.9192 12.9743 59.274 13.2524C59.6383 13.5304 60.0793 13.6694 60.5971 13.6694C60.9806 13.6694 61.3257 13.5975 61.6325 13.4537C61.9393 13.3003 62.1886 13.0846 62.3804 12.8065H64.4944C64.2068 13.5735 63.713 14.1824 63.0131 14.633C62.3228 15.074 61.5175 15.2945 60.5971 15.2945ZM62.6536 10.8363C62.5481 10.3569 62.3132 9.97817 61.9489 9.70013C61.5846 9.42209 61.1388 9.28307 60.6114 9.28307C60.0841 9.28307 59.6383 9.42688 59.274 9.71451C58.9192 9.99255 58.6891 10.3665 58.5836 10.8363H62.6536Z"
        fill="#212121" />
    <path
        d="M65.6223 7.84492H67.722C67.7028 8.12296 67.6549 8.37703 67.5782 8.60714C67.5111 8.83724 67.396 9.09131 67.233 9.36936L67.8227 9.68575C68.1103 9.01461 68.465 8.51605 68.8869 8.19007C69.3183 7.86409 69.8313 7.7011 70.4257 7.7011C71.2407 7.7011 71.8734 7.98873 72.3241 8.56399C72.7747 9.13925 73 9.93982 73 10.9657V15.1076H70.8715V11.3396C70.8715 10.7452 70.7373 10.2946 70.4688 9.98776C70.21 9.67137 69.8265 9.51317 69.3183 9.51317C68.8102 9.51317 68.4219 9.67137 68.1534 9.98776C67.885 10.2946 67.7507 10.7452 67.7507 11.3396V15.1076H65.6223V7.84492Z"
        fill="#212121" />
    <path
        d="M2.32533 0.10498H0.0329834C0.197901 5.3462 4.2906 6.4807 6.31633 6.3928V4.00293C3.07735 4.13479 2.30609 1.45924 2.32533 0.10498Z"
        fill="#212121" />
    <path
        d="M6.49774 3.03051L6.44826 0.673604C11.6069 0.469229 12.935 4.76934 12.9542 6.94494V14.3041C12.3935 18.7212 9.00448 20.1057 7.38004 20.2458C1.77946 20.6545 0.126437 16.2517 0 13.9992V6.17853H2.30059V13.9992C2.82833 16.4385 4.39504 18.3421 7.38004 17.8971C9.76804 17.5411 10.4915 15.3534 10.5547 14.3041V10.0682C10.6207 9.33206 10.652 7.36028 10.2496 5.36268C9.8472 3.36509 7.58069 2.97557 6.49774 3.03051Z"
        fill="#212121" />
</svg>