<svg width="253" height="61" viewBox="0 0 253 61" fill="none" xmlns="http://www.w3.org/2000/svg">
<path d="M96.6632 17.7379L89.0776 1.07617H91.2954L97.5704 15.3271L103.871 1.07617H106.013L98.4274 17.7379H96.6632Z" fill="#272727"/>
<path d="M112.415 9.51308H117.834C119.178 9.51308 120.27 9.20627 121.11 8.59143C121.95 7.97684 122.37 7.13426 122.37 6.0625C122.37 5.03883 121.971 4.23947 121.173 3.66417C120.375 3.08863 119.27 2.80134 117.859 2.80134H112.415V9.51308ZM110.424 17.6193V1.07617H118.01C120.178 1.07617 121.849 1.62756 123.025 2.73056C123.932 3.58094 124.386 4.68393 124.386 6.03907C124.386 7.36248 123.949 8.43423 123.076 9.25288C122.202 10.0725 121.043 10.6088 119.598 10.8604L125.016 17.6193H122.571L117.456 11.1909H112.415V17.6193H110.424Z" fill="#272727"/>
<path d="M129.578 17.6202V1.07715H131.594L138.021 10.105L144.447 1.07715H146.464V17.6202H144.472V4.22018L138.046 13.0828H137.945L131.519 4.24361V17.6202H129.578Z" fill="#272727"/>
<path d="M151.833 15.1382H154.151V17.6195H151.833V15.1382Z" fill="#272727"/>
<path d="M19.0854 60.1796H12.256L0 30.9204H6.22162L15.6705 54.6087L25.1201 30.9204H31.3417L19.0854 60.1796Z" fill="#00A37E"/>
<path d="M49.4451 44.7381C51.004 44.7381 52.282 44.3148 53.2806 43.4664C54.2786 42.618 54.7778 41.4928 54.7778 40.0888C54.7778 38.6849 54.2786 37.5596 53.2806 36.7105C52.282 35.8628 51.004 35.4388 49.4451 35.4388H41.9606V44.7381H49.4451ZM60.625 60.1796H54.3099L47.3867 49.2567H41.9606V60.1796H36.4873V30.9204H50.1934C53.2493 30.9204 55.7133 31.7683 57.5842 33.4642C59.4558 35.1611 60.3911 37.3688 60.3911 40.0888C60.3911 42.5448 59.6733 44.5121 58.2391 45.9888C56.8044 47.4654 55.0585 48.3649 53.0001 48.6863L60.625 60.1796Z" fill="#00A37E"/>
<path d="M100.011 60.1796H94.5376V38.4657L84.9479 60.1796H82.6089L73.0663 38.4657V60.1796H67.5933V30.9204H75.3116L83.7788 50.1782L92.2923 30.9204H100.011V60.1796Z" fill="#00A37E"/>
<path d="M126.395 50.0459L120.781 36.0964L115.168 50.0459H126.395ZM136.452 60.1796H130.23L127.938 54.5648H113.624L111.332 60.1796H105.11L117.366 30.9204H124.196L136.452 60.1796Z" fill="#00A37E"/>
<path d="M152.263 60.707C146.899 60.707 142.674 59.157 139.586 56.0567L142.627 52.109C145.308 54.7997 148.598 56.1441 152.497 56.1441C154.586 56.1441 156.153 55.7499 157.198 54.9603C158.243 54.1702 158.765 53.2347 158.765 52.1529C158.765 51.0411 158.141 50.157 156.894 49.4985C155.647 48.841 154.134 48.3216 152.356 47.9415C150.579 47.5617 148.794 47.1077 147.001 46.5812C145.207 46.0553 143.687 45.1631 142.439 43.9052C141.192 42.6486 140.569 41.0255 140.569 39.0365C140.569 36.5798 141.621 34.54 143.726 32.9171C145.831 31.294 148.568 30.4824 151.936 30.4824C156.738 30.4824 160.636 31.8424 163.631 34.562L160.496 38.3787C158.126 36.1563 155.117 35.0448 151.468 35.0448C149.846 35.0448 148.56 35.3735 147.609 36.0318C146.657 36.6896 146.182 37.5744 146.182 38.6857C146.182 39.4165 146.517 40.0313 147.188 40.5278C147.858 41.0255 148.723 41.4277 149.784 41.7346C150.844 42.0416 152.021 42.3418 153.315 42.6335C154.61 42.9257 155.904 43.2845 157.198 43.7079C158.492 44.1326 159.67 44.6513 160.73 45.2654C161.79 45.8795 162.656 46.7277 163.327 47.8097C163.997 48.892 164.332 50.179 164.332 51.6696C164.332 54.302 163.318 56.4668 161.292 58.1624C159.264 59.8588 156.255 60.707 152.263 60.707Z" fill="#00A37E"/>
<path d="M184.025 60.1796H178.553V35.4386H169.103V30.9204H193.475V35.4386H184.025V60.1796Z" fill="#00A37E"/>
<path d="M221.215 60.1796H199.838V30.9204H221.215V35.4386H205.311V43.0276H220.888V47.546H205.311V55.6612H221.215V60.1796Z" fill="#00A37E"/>
<path d="M241.516 44.7381C243.075 44.7381 244.353 44.3148 245.352 43.4664C246.35 42.618 246.849 41.4928 246.849 40.0888C246.849 38.6849 246.35 37.5596 245.352 36.7105C244.353 35.8628 243.075 35.4388 241.516 35.4388H234.032V44.7381H241.516ZM252.696 60.1796H246.381L239.458 49.2567H234.032V60.1796H228.558V30.9204H242.265C245.321 30.9204 247.785 31.7683 249.656 33.4642C251.527 35.1611 252.463 37.3688 252.463 40.0888C252.463 42.5448 251.745 44.5121 250.31 45.9888C248.876 47.4654 247.13 48.3649 245.072 48.6863L252.696 60.1796Z" fill="#00A37E"/>
<path d="M76.2269 17.1605V9.22083L74.6331 8.40732V15.3182L69.7366 12.4913V5.91695L75.43 2.62992L81.1234 5.91695V12.4913L79.0646 13.6802L79.0709 15.5164L82.7173 13.4112V4.99653L75.43 0.789551L68.1432 4.99653V13.4112L75.4319 17.6192L76.2269 17.1605Z" fill="#00A37E"/>
<path d="M165.729 17.9038C163.023 17.9038 160.852 17.0883 159.214 15.4578C157.576 13.8269 156.757 11.791 156.757 9.34849C156.757 7.01679 157.588 5.008 159.252 3.32189C160.915 1.63626 163.033 0.792969 165.603 0.792969C167.014 0.792969 168.228 0.974565 169.245 1.33654C170.261 1.69924 171.24 2.25062 172.181 2.99091L170.895 4.40902C169.349 3.14859 167.56 2.51863 165.527 2.51863C163.595 2.51863 161.995 3.18424 160.726 4.51545C159.457 5.84667 158.824 7.4576 158.824 9.34849C158.824 11.3492 159.457 12.9958 160.726 14.2877C161.995 15.5796 163.687 16.226 165.804 16.226C167.753 16.226 169.45 15.6746 170.895 14.5711V10.4593H165.527V8.781H172.811V15.3748C170.795 17.0607 168.434 17.9038 165.729 17.9038Z" fill="#272727"/>
<path d="M180.22 9.51308H185.639C186.982 9.51308 188.074 9.20627 188.914 8.59143C189.754 7.97684 190.174 7.13426 190.174 6.0625C190.174 5.03883 189.775 4.23947 188.977 3.66417C188.179 3.08863 187.075 2.80134 185.663 2.80134H180.22V9.51308ZM178.229 17.6193V1.07617H185.815C187.982 1.07617 189.654 1.62756 190.83 2.73056C191.737 3.58094 192.191 4.68393 192.191 6.03907C192.191 7.36248 191.754 8.43423 190.88 9.25288C190.007 10.0725 188.847 10.6088 187.403 10.8604L192.821 17.6193H190.376L185.26 11.1909H180.22V17.6193H178.229Z" fill="#272727"/>
<path d="M200.647 14.1928C201.965 15.5164 203.624 16.1781 205.624 16.1781C207.623 16.1781 209.274 15.5208 210.577 14.2047C211.878 12.8896 212.53 11.2709 212.53 9.348C212.53 7.44198 211.87 5.82664 210.551 4.50324C209.232 3.17983 207.573 2.51812 205.573 2.51812C203.574 2.51812 201.923 3.17641 200.621 4.49152C199.319 5.80712 198.668 7.42587 198.668 9.348C198.668 11.2545 199.328 12.8694 200.647 14.1928ZM212.05 15.3866C210.354 17.0644 208.195 17.9035 205.573 17.9035C202.953 17.9035 200.801 17.0685 199.122 15.3983C197.442 13.7283 196.602 11.7114 196.602 9.348C196.602 7.00092 197.45 4.98774 199.147 3.31017C200.844 1.63187 203.003 0.792969 205.624 0.792969C208.245 0.792969 210.396 1.62797 212.076 3.29797C213.755 4.96846 214.596 6.98457 214.596 9.348C214.596 11.6958 213.748 13.7083 212.05 15.3866Z" fill="#272727"/>
<path d="M226.791 17.8794C224.556 17.8794 222.776 17.2534 221.448 16.0005C220.121 14.7479 219.458 12.9795 219.458 10.6947V1.07617H221.448V10.5765C221.448 12.3573 221.923 13.7315 222.872 14.7005C223.821 15.6698 225.144 16.1543 226.842 16.1543C228.505 16.1543 229.807 15.6898 230.748 14.7596C231.689 13.8304 232.159 12.4755 232.159 10.6947V1.07617H234.15V10.5531C234.15 12.9165 233.486 14.7284 232.159 15.9883C230.832 17.2495 229.042 17.8794 226.791 17.8794Z" fill="#272727"/>
<path d="M241.785 10.0808H246.146C247.607 10.0808 248.779 9.74592 249.661 9.07592C250.543 8.4069 250.984 7.51283 250.984 6.39397C250.984 5.24386 250.559 4.35735 249.711 3.73519C248.863 3.11303 247.708 2.80133 246.246 2.80133H241.785V10.0808ZM239.794 17.6197V1.07617H246.397C248.413 1.07617 250.018 1.5492 251.211 2.49428C252.404 3.43961 253 4.73177 253 6.37005C253 8.08789 252.341 9.41885 251.022 10.3642C249.703 11.3095 248.052 11.7823 246.07 11.7823H241.785V17.6197H239.794Z" fill="#272727"/>
</svg>
