<svg width="66" height="66" viewBox="0 0 66 66" fill="none" xmlns="http://www.w3.org/2000/svg">
    <path fill-rule="evenodd" clip-rule="evenodd"
        d="M53.3745 0H12.7735C12.0215 0 11.4062 0.615278 11.4062 1.36728V35.5876C11.4062 36.3396 12.0215 36.9548 12.7735 36.9548H16.377V30.7418C16.2886 30.59 16.2377 30.414 16.2377 30.2267V22.3551C16.2377 21.79 16.7001 21.3276 17.2652 21.3276H25.1368C25.7019 21.3276 26.1643 21.79 26.1643 22.3551V30.2267C26.1645 30.4078 26.1163 30.5857 26.0248 30.742V35.8663C26.1705 35.8532 26.3167 35.8467 26.4629 35.8467C27.6322 35.8467 28.709 36.2624 29.5512 36.9548H53.3745C54.1265 36.9548 54.7418 36.3396 54.7418 35.5876V1.36728C54.7418 0.615278 54.1265 0 53.3745 0ZM19.1439 9.36705C19.0129 9.37149 18.8837 9.39945 18.7624 9.44969C18.6297 9.50466 18.5091 9.58523 18.4076 9.6868C18.2026 9.89199 18.0874 10.1702 18.0874 10.4603C18.0874 10.7503 18.2026 11.0286 18.4076 11.2337L20.1331 12.9593C20.3387 13.1648 20.6027 13.27 20.8684 13.2789C21.1759 13.2686 21.4786 13.1295 21.6878 12.8677L24.1451 9.82982C24.3224 9.60382 24.4038 9.31713 24.3715 9.03168C24.3392 8.74622 24.1959 8.48492 23.9726 8.30423C23.7868 8.15384 23.5579 8.06933 23.3215 8.06136C23.2983 8.06214 23.275 8.06367 23.2518 8.06595C22.9659 8.09396 22.7025 8.23332 22.5185 8.45392L20.8204 10.553L20.7796 10.5121L20.7466 10.553L19.8804 9.6868C19.7789 9.58523 19.6583 9.50466 19.5256 9.44969C19.4043 9.39943 19.275 9.37147 19.1439 9.36705ZM16.2377 6.72814C16.2377 6.16304 16.7001 5.70062 17.2652 5.70062H17.3361C17.3371 5.70062 17.3381 5.70062 17.3391 5.70062H25.2107C25.7758 5.70062 26.2382 6.16303 26.2382 6.72813V14.5997C26.2382 15.1648 25.7758 15.6272 25.2107 15.6272H25.1399C25.1389 15.6272 25.1378 15.6272 25.1368 15.6272H17.2652C16.7001 15.6272 16.2377 15.1648 16.2377 14.5997V6.72814ZM49.9131 14.5895H49.9841C50.2742 14.5895 50.5524 14.4742 50.7575 14.2691C50.9627 14.064 51.0779 13.7857 51.0779 13.4956C51.0779 13.2055 50.9627 12.9273 50.7575 12.7222C50.5524 12.5171 50.2742 12.4018 49.9841 12.4018H32.5106C32.5096 12.4018 32.5087 12.4018 32.5077 12.4018H32.4367C32.1466 12.4018 31.8684 12.5171 31.6633 12.7222C31.4581 12.9273 31.3429 13.2055 31.3429 13.4956C31.3429 13.7857 31.4581 14.064 31.6633 14.2691C31.8684 14.4742 32.1466 14.5895 32.4367 14.5895H49.9102C49.9112 14.5895 49.9121 14.5895 49.9131 14.5895ZM49.9134 8.92604H49.9841C50.2742 8.92604 50.5524 8.8108 50.7575 8.60567C50.9627 8.40053 51.0779 8.12231 51.0779 7.83221C51.0779 7.54211 50.9627 7.26389 50.7575 7.05876C50.5524 6.85363 50.2742 6.73839 49.9841 6.73839H32.5106C32.5096 6.73839 32.5086 6.73839 32.5075 6.73839H32.4367C32.1466 6.73839 31.8684 6.85363 31.6633 7.05876C31.4581 7.2639 31.3429 7.54212 31.3429 7.83222C31.3429 8.12232 31.4581 8.40054 31.6633 8.60567C31.8684 8.8108 32.1466 8.92605 32.4367 8.92605H49.9102C49.9113 8.92605 49.9124 8.92604 49.9134 8.92604ZM49.9138 24.553H49.9841C50.2742 24.553 50.5524 24.4378 50.7575 24.2326C50.9627 24.0275 51.0779 23.7493 51.0779 23.4592C51.0779 23.1691 50.9627 22.8909 50.7575 22.6857C50.5524 22.4806 50.2742 22.3654 49.9841 22.3654H32.5106C32.5096 22.3654 32.5087 22.3654 32.5077 22.3654H32.4367C32.1466 22.3654 31.8684 22.4806 31.6633 22.6857C31.4581 22.8909 31.3429 23.1691 31.3429 23.4592C31.3429 23.7493 31.4581 24.0275 31.6633 24.2326C31.8684 24.4378 32.1466 24.553 32.4367 24.553H49.9102C49.9114 24.553 49.9126 24.553 49.9138 24.553ZM49.9131 30.2163H49.9841C50.2742 30.2163 50.5524 30.1011 50.7575 29.8959C50.9627 29.6908 51.0779 29.4126 51.0779 29.1225C51.0779 28.8324 50.9627 28.5542 50.7575 28.349C50.5524 28.1439 50.2742 28.0287 49.9841 28.0287H32.5106C32.5096 28.0287 32.5087 28.0287 32.5077 28.0287H32.4367C32.1466 28.0287 31.8684 28.1439 31.6633 28.349C31.4581 28.5542 31.3429 28.8324 31.3429 29.1225C31.3429 29.4126 31.4581 29.6908 31.6633 29.8959C31.8684 30.1011 32.1466 30.2163 32.4367 30.2163H49.9102C49.9112 30.2163 49.9121 30.2163 49.9131 30.2163Z"
        fill="url(#paint0_linear_989_9919)" />
    <path fill-rule="evenodd" clip-rule="evenodd"
        d="M18.3683 29.8029C18.3683 28.3529 19.5546 27.1667 21.0047 27.1667C22.4547 27.1667 23.6408 28.3536 23.6408 29.8029V40.0969C23.9018 38.888 24.9824 37.9756 26.2666 37.9756C27.7229 37.9756 28.9231 39.1527 28.9507 40.609C29.3487 39.7995 30.1819 39.2395 31.1403 39.2395C32.4809 39.2395 33.5772 40.3359 33.5772 41.676V42.0716C34.0125 41.4903 34.7064 41.1123 35.4838 41.1123C36.7937 41.1123 37.8646 42.1834 37.8646 43.4924L37.8647 54.5344C37.8647 55.6596 37.6135 56.6254 37.0655 57.6061H19.6525C19.4682 57.2853 19.1977 57.0141 18.8536 56.8136L16.1781 55.2551C14.665 54.3736 13.5713 53.0273 13.4166 51.283L13.0061 46.6622C13.0061 44.4917 14.2619 43.002 16.1808 42.5148V47.1724C16.1808 47.4625 16.296 47.7407 16.5012 47.9458C16.7063 48.1509 16.9845 48.2662 17.2746 48.2662C17.5647 48.2662 17.8429 48.1509 18.0481 47.9458C18.2532 47.7407 18.3684 47.4625 18.3684 47.1724L18.3683 29.8029ZM36.7829 59.7851V61.9502H19.9351V59.7851H36.7829ZM14.8847 58.6956L17.7476 58.701V64.1378H38.9706C38.9706 62.524 38.8322 60.2083 38.9711 58.6805C39.7026 57.3741 40.0524 56.0326 40.0524 54.5341L40.0522 43.4922C40.0522 43.0366 39.9847 42.5963 39.8596 42.1807H61.4735V10.7981C61.4735 10.4133 61.1586 10.0984 60.7737 10.0984H56.733V5.87939H60.6471C63.422 5.87939 65.6924 8.14977 65.6924 10.9248V45.6344C65.6924 48.4093 63.422 50.6798 60.6471 50.6798H43.1908V58.6958H50.8706C53.2371 58.6958 55.1732 60.2428 55.1732 62.1336V65.5711H10.582V62.1333C10.582 60.2425 12.5182 58.6956 14.8847 58.6956Z"
        fill="url(#paint1_linear_989_9919)" />
    <path fill-rule="evenodd" clip-rule="evenodd"
        d="M5.38351 10.157H9.42412V5.93799H5.51013C2.73522 5.93799 0.464844 8.20837 0.464844 10.9834V45.693C0.464844 48.4681 2.73522 50.7384 5.51013 50.7384H11.5684L11.2202 46.721C11.2202 44.8954 11.8541 43.3599 12.9226 42.2395H4.68374V10.8567C4.68374 10.4719 4.99862 10.157 5.38351 10.157Z"
        fill="url(#paint2_linear_989_9919)" />
    <defs>
        <linearGradient id="paint0_linear_989_9919" x1="33.111" y1="0" x2="33.0139" y2="70.1017"
            gradientUnits="userSpaceOnUse">
            <stop stop-color="#02C498" />
            <stop offset="1" stop-color="white" stop-opacity="0" />
        </linearGradient>
        <linearGradient id="paint1_linear_989_9919" x1="25.3487" y1="62.5534" x2="82.2485" y2="-33.7991"
            gradientUnits="userSpaceOnUse">
            <stop stop-color="#02C498" />
            <stop offset="1" stop-color="white" stop-opacity="0" />
        </linearGradient>
        <linearGradient id="paint2_linear_989_9919" x1="4.01978" y1="46.2142" x2="-42.9315" y2="-66.7636"
            gradientUnits="userSpaceOnUse">
            <stop stop-color="#02C498" />
            <stop offset="1" stop-color="white" stop-opacity="0" />
        </linearGradient>
    </defs>
</svg>