<svg width="376" height="698" viewBox="0 0 376 698" fill="none" xmlns="http://www.w3.org/2000/svg"
    preserveAspectRatio="none">
    <mask id="mask0_2188_8586" style="mask-type:alpha" maskUnits="userSpaceOnUse" x="0" y="0" width="376" height="698">
        <path fill-rule="evenodd" clip-rule="evenodd"
            d="M242.425 0.638184C245.203 0.638184 247.782 2.07953 249.238 4.44565L273.249 43.4668C276.373 48.5434 283.752 48.5434 286.876 43.4668L310.887 4.44565C312.343 2.07953 314.922 0.638184 317.7 0.638184H367.062C371.481 0.638184 375.062 4.21991 375.062 8.63819V689.638C375.062 694.056 371.481 697.638 367.062 697.638H254.463C248.657 697.638 245.65 690.709 249.616 686.468V686.468C253.582 682.228 250.575 675.299 244.769 675.299H152.963C150.748 675.299 148.632 676.217 147.12 677.834L130.97 695.103C129.457 696.72 127.341 697.638 125.127 697.638H8.0625C3.64422 697.638 0.0625 694.056 0.0625 689.638V112.169C0.0625 109.836 1.08113 107.619 2.85149 106.099L45.9918 69.0639C49.7105 65.8715 49.7105 60.1162 45.9918 56.9238L2.85149 19.8886C1.08113 18.3688 0.0625 16.1518 0.0625 13.8186V8.63818C0.0625 4.21991 3.64422 0.638184 8.0625 0.638184H242.425Z"
            fill="black" />
    </mask>
    <g mask="url(#mask0_2188_8586)">
        <rect x="-633.938" y="-53.1309" width="1267.43" height="750.901" fill="black" />
    </g>
</svg>