<svg width="1889" height="642" viewBox="0 0 1889 642" fill="none" xmlns="http://www.w3.org/2000/svg"
    preserveAspectRatio="none">
    <mask id="mask0_2235_8901" style="mask-type:alpha" maskUnits="userSpaceOnUse" x="0" y="0" width="1889" height="642">
        <path fill-rule="evenodd" clip-rule="evenodd"
            d="M1499.92 63.8967C1495.18 66.7426 1489.25 66.7426 1484.5 63.8967L1381.93 2.41078C1379.6 1.01409 1376.93 0.276367 1374.21 0.276367H15.7109C7.42667 0.276367 0.710938 6.99208 0.710938 15.2764V255.713C0.710938 261.922 4.53673 267.489 10.3333 269.715L106.83 306.774C119.66 311.701 119.66 329.852 106.83 334.779L10.3333 371.838C4.53674 374.064 0.710938 379.631 0.710938 385.841V626.276C0.710938 634.561 7.42665 641.276 15.7109 641.276H662.672C666.394 641.276 669.983 639.893 672.741 637.394L720.258 594.361C723.017 591.862 726.605 590.479 730.327 590.479H1109.54C1122.89 590.479 1129.23 606.919 1119.33 615.878V615.878C1109.44 624.837 1115.78 641.276 1129.12 641.276H1873.71C1882 641.276 1888.71 634.561 1888.71 626.276V15.2764C1888.71 6.9921 1882 0.276367 1873.71 0.276367H1610.21C1607.49 0.276367 1604.83 1.01409 1602.5 2.41078L1499.92 63.8967Z"
            fill="#F0F7F4" />
    </mask>
    <g mask="url(#mask0_2235_8901)">
        <path fill-rule="evenodd" clip-rule="evenodd"
            d="M0.710938 15.2764C0.710938 6.9921 7.42672 0.276367 15.711 0.276367H1873.71C1882 0.276367 1888.71 6.99211 1888.71 15.2764V626.276C1888.71 634.561 1882 641.276 1873.71 641.276H1129.12C1115.78 641.276 1109.44 624.837 1119.33 615.878V615.878C1129.23 606.919 1122.89 590.479 1109.54 590.479H730.327C726.605 590.479 723.017 591.862 720.258 594.361L672.741 637.394C669.983 639.893 666.394 641.276 662.672 641.276H15.7109C7.42667 641.276 0.710938 634.561 0.710938 626.276V385.841C0.710938 379.631 4.53673 374.064 10.3333 371.838L106.83 334.779C119.66 329.852 119.66 311.701 106.83 306.774L10.3333 269.715C4.53674 267.489 0.710938 261.922 0.710938 255.713V15.2764Z"
            fill="black" />
    </g>
</svg>