<svg xmlns="http://www.w3.org/2000/svg" width="96" height="96" viewBox="0 0 96 96" fill="none">
    <rect y="20" width="16" height="16" fill="#02C498" />
    <rect width="16" height="16" fill="#02C498" />
    <rect y="40" width="16" height="16" fill="#02C498" />
    <rect y="60" width="16" height="16" fill="#02C498" />
    <rect y="80" width="16" height="16" fill="#02C498" />
    <rect x="20" y="20" width="16" height="16" fill="#02C498" />
    <rect x="20" width="16" height="16" fill="#02C498" />
    <rect x="20" y="40" width="16" height="16" fill="#02C498" />
    <rect x="20" y="60" width="16" height="16" fill="#02C498" />
    <rect x="20" y="80" width="16" height="16" fill="#02C498" />
    <rect x="40" y="20" width="16" height="16" fill="#02C498" />
    <rect x="40" width="16" height="16" fill="#02C498" />
    <rect x="40" y="40" width="16" height="16" fill="#02C498" />
    <rect x="40" y="60" width="16" height="16" fill="#02C498" />
    <rect x="40" y="80" width="16" height="16" fill="#02C498" />
    <rect x="60" y="20" width="16" height="16" fill="#02C498" />
    <rect x="60" width="16" height="16" fill="#02C498" />
    <rect x="80" y="20" width="16" height="16" fill="#02C498" />
    <rect x="80" width="16" height="16" fill="#02C498" />
    <rect x="60" y="40" width="16" height="16" fill="#02C498" />
    <rect x="80" y="40" width="16" height="16" fill="#02C498" />
    <rect x="60" y="60" width="16" height="16" fill="#02C498" />
    <rect x="80" y="60" width="16" height="16" fill="#02C498" />
    <rect x="60" y="80" width="16" height="16" fill="#02C498" />
    <rect x="80" y="80" width="16" height="16" fill="#02C498" />
</svg>