<svg xmlns="http://www.w3.org/2000/svg" width="30" height="30" viewBox="0 0 30 30" fill="none">
    <path fill-rule="evenodd" clip-rule="evenodd"
        d="M26 27.8195V9.71949H18.2594C17.7059 9.71949 17.2579 9.2712 17.2579 8.71768V0.977051H5.20322C4.53955 0.977051 4 1.51693 4 2.1806V27.8195C4 28.4831 4.5396 29.0227 5.20322 29.0227H24.7962C25.4598 29.0227 26 28.4831 26 27.8195ZM19.2609 7.7162V2.39357L24.5833 7.7162H19.2609ZM22.1614 22.4514C22.1614 23.0042 21.7131 23.4532 21.1596 23.4532H8.83978C8.28692 23.4532 7.83797 23.0043 7.83797 22.4514C7.83797 21.8979 8.28692 21.4498 8.83978 21.4498H21.1596C21.7131 21.4498 22.1614 21.8979 22.1614 22.4514ZM22.1614 15.6151C22.1614 16.1683 21.7131 16.6166 21.1596 16.6166H8.83978C8.28692 16.6166 7.83797 16.1683 7.83797 15.6151C7.83797 15.0619 8.28692 14.6136 8.83978 14.6136H21.1596C21.7131 14.6136 22.1614 15.0619 22.1614 15.6151Z"
        fill="#02C498" />
</svg>