<svg xmlns="http://www.w3.org/2000/svg" width="30" height="30" viewBox="0 0 30 30" fill="none">
    <path fill-rule="evenodd" clip-rule="evenodd"
        d="M3.01454 5.92709C3.01454 6.65498 3.01067 7.35914 3.00691 8.04005C2.98013 12.8682 2.95888 16.6818 4.42448 19.9824C5.19462 21.7166 6.35027 23.2493 7.957 24.6674C9.62452 26.1391 11.827 27.5332 14.6902 28.9299C14.7862 28.9768 14.8923 29.0012 15 29.0012C15.1077 29.0012 15.2138 28.9768 15.3098 28.9299C18.1729 27.5332 20.3754 26.1391 22.0429 24.6674C23.6497 23.2493 24.8052 21.7166 25.5754 19.9824C27.0412 16.6818 27.0199 12.8682 26.9931 8.04005C26.9894 7.35914 26.9854 6.65498 26.9854 5.92709C26.9855 5.79538 26.9442 5.6667 26.8669 5.55785C26.7897 5.44899 26.6801 5.365 26.5524 5.31684L15.2505 1.04427C15.0895 0.983616 14.9105 0.983616 14.7495 1.04427L3.44779 5.31684C3.32009 5.36501 3.21047 5.449 3.13323 5.55786C3.05599 5.66671 3.01471 5.79538 3.01477 5.92709H3.01454ZM9.79613 15.0382C9.68068 14.9067 9.62361 14.737 9.63719 14.5655C9.65077 14.3941 9.73392 14.2346 9.86875 14.1213C10.0036 14.0081 10.1793 13.9502 10.3582 13.9601C10.537 13.9699 10.7047 14.0468 10.8251 14.1741L13.7373 17.3687L20.517 11.2088C20.6489 11.0902 20.8243 11.0265 21.005 11.0317C21.1856 11.0369 21.3568 11.1105 21.481 11.2365C21.6053 11.3625 21.6725 11.5306 21.668 11.704C21.6635 11.8774 21.5877 12.0421 21.4571 12.162L14.161 18.7911C14.034 18.9064 13.8658 18.9708 13.691 18.971C13.6803 18.971 13.6696 18.971 13.6589 18.97C13.567 18.9659 13.4768 18.944 13.394 18.9056C13.3111 18.8673 13.2371 18.8132 13.1765 18.7467L9.79613 15.0382Z"
        fill="#02C498" />
</svg>