<svg xmlns="http://www.w3.org/2000/svg" width="30" height="30" viewBox="0 0 30 30" fill="none">
    <path fill-rule="evenodd" clip-rule="evenodd"
        d="M23.9183 13.4575V19.2C23.9183 19.4573 23.7809 19.7143 23.6439 19.8859C22.3409 20.8287 19.1869 22.7143 15.0039 22.7143C10.8209 22.7143 7.66687 20.8287 6.43241 19.8859C6.22687 19.7143 6.08984 19.4573 6.08984 19.2V13.4579L14.3867 16.5433C14.7981 16.7149 15.2097 16.7149 15.5526 16.5433L23.9183 13.4575Z"
        fill="#02C498" />
    <path fill-rule="evenodd" clip-rule="evenodd"
        d="M29.4016 9.00019C29.4016 9.34275 29.1957 9.68608 28.9217 9.85736L26.6586 10.7141V20.3143C27.4817 20.6572 28.0301 21.6001 28.0301 22.7142C28.0301 23.8282 27.4814 24.7714 26.6586 25.114V26.1428C26.6586 26.571 26.316 27 25.9728 27C25.6297 27 25.2874 26.5714 25.2874 26.1428V25.114C24.4643 24.7714 23.9159 23.8286 23.9159 22.7142C23.9159 21.5997 24.4646 20.6572 25.2874 20.3143V11.1424L15.2074 15H14.7954L1.08146 9.85736C0.80771 9.6857 0.601562 9.34238 0.601562 9.00019C0.601562 8.658 0.807407 8.3143 1.08146 8.14302L14.7957 3H15.2074L28.9217 8.14302C29.1957 8.3143 29.4016 8.65725 29.4016 9.00019Z"
        fill="#02C498" />
</svg>