<svg xmlns="http://www.w3.org/2000/svg" width="30" height="30" viewBox="0 0 30 30" fill="none">
    <path fill-rule="evenodd" clip-rule="evenodd"
        d="M22.0227 19.0974L21.3869 19.7331L20.3704 18.7166C19.8766 19.3225 19.3224 19.8766 18.7164 20.3704L19.7332 21.387L19.0974 22.0227L20.1354 23.0605L23.0606 20.1352L22.0227 19.0974ZM11.4876 1C17.2796 1 21.975 5.69548 21.975 11.4876C21.975 17.2796 17.2796 21.975 11.4874 21.975C5.69548 21.9751 1 17.2797 1 11.4876C1 5.69542 5.69548 1 11.4876 1ZM11.4876 2.95688C16.1988 2.95688 20.0182 6.77629 20.0182 11.4876C20.0182 16.1988 16.1988 20.0182 11.4876 20.0182C6.77635 20.0182 2.95688 16.1988 2.95688 11.4876C2.95688 6.77629 6.77635 2.95688 11.4876 2.95688ZM11.4876 3.92239C15.6656 3.92239 19.0527 7.30937 19.0527 11.4876C19.0527 15.6658 15.6656 19.0527 11.4876 19.0527C7.30937 19.0527 3.92239 15.6658 3.92239 11.4876C3.92239 7.30937 7.30937 3.92239 11.4876 3.92239ZM14.6032 8.08389L9.99442 12.6928L8.44329 10.7408C8.10484 10.3152 7.48544 10.2444 7.05981 10.5829C6.63419 10.9213 6.56342 11.5407 6.90175 11.9663L9.10166 14.7347C9.45174 15.2362 10.1725 15.3048 10.6089 14.8684L15.9984 9.47883C16.3836 9.09365 16.3836 8.46907 15.9984 8.08377C15.6132 7.69847 14.9886 7.69859 14.6032 8.08389ZM20.818 23.7432L23.7432 20.8179L28.3967 25.4715C29.2011 26.2758 29.2011 27.5923 28.3967 28.3967C27.5923 29.2011 26.2759 29.2011 25.4715 28.3967L20.818 23.7432Z"
        fill="#02C498" />
</svg>